<svg xmlns="http://www.w3.org/2000/svg" xmlns:xlink="http://www.w3.org/1999/xlink" width="1000" zoomAndPan="magnify" viewBox="0 0 750 749.999995" height="1000" preserveAspectRatio="xMidYMid meet" version="1.2"><defs/><g id="780c0cdff9"><g style="fill:#ffffff;fill-opacity:1;"><g transform="translate(25.686834, 417.046699)"><path style="stroke:none" d="M 151.484375 -56.0625 C 156.109375 -54.769531 160.046875 -53.289062 163.296875 -51.625 C 166.554688 -49.957031 169.300781 -48.222656 171.53125 -46.421875 C 173.769531 -44.617188 175.53125 -42.773438 176.8125 -40.890625 C 178.101562 -39.015625 179.097656 -37.210938 179.796875 -35.484375 C 180.503906 -33.765625 180.953125 -32.164062 181.140625 -30.6875 C 181.328125 -29.207031 181.421875 -27.957031 181.421875 -26.9375 C 181.421875 -23.175781 180.707031 -19.816406 179.28125 -16.859375 C 177.851562 -13.898438 175.925781 -11.289062 173.5 -9.03125 C 171.082031 -6.769531 168.273438 -4.859375 165.078125 -3.296875 C 161.878906 -1.742188 158.53125 -0.472656 155.03125 0.515625 C 151.539062 1.515625 147.96875 2.242188 144.3125 2.703125 C 140.65625 3.160156 137.1875 3.390625 133.90625 3.390625 C 128.582031 3.390625 123.082031 2.847656 117.40625 1.765625 C 111.738281 0.691406 106 -1.050781 100.1875 -3.46875 C 98.894531 -4.007812 98.25 -4.953125 98.25 -6.296875 C 98.25 -7.203125 98.570312 -7.9375 99.21875 -8.5 C 99.863281 -9.070312 100.5625 -9.359375 101.3125 -9.359375 C 101.6875 -9.359375 102.09375 -9.273438 102.53125 -9.109375 C 107.53125 -7.015625 112.664062 -5.429688 117.9375 -4.359375 C 123.207031 -3.285156 128.503906 -2.75 133.828125 -2.75 C 141.085938 -2.75 147.320312 -3.445312 152.53125 -4.84375 C 157.75 -6.238281 162.039062 -8.078125 165.40625 -10.359375 C 168.769531 -12.648438 171.253906 -15.234375 172.859375 -18.109375 C 174.472656 -20.984375 175.28125 -23.898438 175.28125 -26.859375 C 175.28125 -30.140625 174.378906 -33.175781 172.578125 -35.96875 C 170.773438 -38.769531 168.21875 -41.269531 164.90625 -43.46875 C 161.601562 -45.675781 157.640625 -47.5625 153.015625 -49.125 C 148.390625 -50.6875 143.253906 -51.84375 137.609375 -52.59375 C 133.898438 -51.945312 130.296875 -51.488281 126.796875 -51.21875 C 123.304688 -50.945312 120.082031 -50.8125 117.125 -50.8125 L 115.265625 -50.8125 C 114.890625 -50.8125 114.539062 -50.84375 114.21875 -50.90625 C 110.351562 -41.59375 105.742188 -33.546875 100.390625 -26.765625 C 95.035156 -19.992188 89.332031 -14.390625 83.28125 -9.953125 C 77.238281 -5.523438 71.03125 -2.25 64.65625 -0.125 C 58.28125 2 52.160156 3.0625 46.296875 3.0625 C 40.222656 3.0625 34.644531 2.210938 29.5625 0.515625 C 24.476562 -1.171875 20.109375 -3.570312 16.453125 -6.6875 C 12.796875 -9.8125 9.945312 -13.59375 7.90625 -18.03125 C 5.863281 -22.46875 4.84375 -27.425781 4.84375 -32.90625 C 4.84375 -38.613281 5.957031 -44.515625 8.1875 -50.609375 C 10.414062 -56.710938 13.738281 -62.914062 18.15625 -69.21875 C 22.34375 -75.125 26.988281 -80.429688 32.09375 -85.140625 C 37.207031 -89.847656 42.570312 -93.972656 48.1875 -97.515625 C 53.8125 -101.066406 59.609375 -104.109375 65.578125 -106.640625 C 71.546875 -109.171875 77.472656 -111.238281 83.359375 -112.84375 C 89.253906 -114.457031 95.007812 -115.628906 100.625 -116.359375 C 106.25 -117.085938 111.535156 -117.453125 116.484375 -117.453125 C 120.515625 -117.453125 124.359375 -117.316406 128.015625 -117.046875 C 131.671875 -116.773438 135.164062 -116.367188 138.5 -115.828125 C 140.4375 -117.984375 141.992188 -119.53125 143.171875 -120.46875 C 144.359375 -121.414062 145.035156 -121.941406 145.203125 -122.046875 C 145.847656 -122.367188 146.410156 -122.53125 146.890625 -122.53125 C 147.640625 -122.53125 148.3125 -122.3125 148.90625 -121.875 C 149.5 -121.445312 149.796875 -120.832031 149.796875 -120.03125 C 149.796875 -118.957031 149.414062 -118.054688 148.65625 -117.328125 C 147.90625 -116.597656 146.882812 -115.617188 145.59375 -114.390625 C 155.4375 -111.960938 162.96875 -108.316406 168.1875 -103.453125 C 173.40625 -98.585938 176.015625 -92.578125 176.015625 -85.421875 C 176.015625 -81.492188 175.367188 -77.96875 174.078125 -74.84375 C 172.785156 -71.726562 171.019531 -68.988281 168.78125 -66.625 C 166.550781 -64.257812 163.941406 -62.203125 160.953125 -60.453125 C 157.972656 -58.710938 154.816406 -57.25 151.484375 -56.0625 Z M 137.703125 -58.71875 C 140.066406 -59.15625 142.5 -59.722656 145 -60.421875 C 147.5 -61.117188 149.941406 -61.960938 152.328125 -62.953125 C 154.722656 -63.953125 156.992188 -65.132812 159.140625 -66.5 C 161.296875 -67.875 163.164062 -69.488281 164.75 -71.34375 C 166.34375 -73.195312 167.609375 -75.28125 168.546875 -77.59375 C 169.492188 -79.90625 169.96875 -82.539062 169.96875 -85.5 C 169.96875 -91.53125 167.460938 -96.503906 162.453125 -100.421875 C 157.453125 -104.347656 150.273438 -107.253906 140.921875 -109.140625 C 138.234375 -105.804688 135.707031 -102.125 133.34375 -98.09375 C 130.976562 -94.0625 128.800781 -89.878906 126.8125 -85.546875 C 124.820312 -81.210938 123.03125 -76.828125 121.4375 -72.390625 C 119.851562 -67.960938 118.550781 -63.675781 117.53125 -59.53125 C 118.601562 -59.582031 119.597656 -59.609375 120.515625 -59.609375 C 121.429688 -59.609375 122.210938 -59.609375 122.859375 -59.609375 C 124.953125 -59.609375 127.234375 -59.539062 129.703125 -59.40625 C 132.179688 -59.269531 134.847656 -59.039062 137.703125 -58.71875 Z M 134.0625 -110.265625 C 131.320312 -110.640625 128.5 -110.90625 125.59375 -111.0625 C 122.6875 -111.226562 119.648438 -111.3125 116.484375 -111.3125 C 111.742188 -111.3125 106.710938 -110.960938 101.390625 -110.265625 C 96.066406 -109.566406 90.609375 -108.460938 85.015625 -106.953125 C 79.421875 -105.453125 73.785156 -103.503906 68.109375 -101.109375 C 62.441406 -98.722656 56.929688 -95.847656 51.578125 -92.484375 C 46.234375 -89.117188 41.140625 -85.203125 36.296875 -80.734375 C 31.460938 -76.273438 27.054688 -71.25 23.078125 -65.65625 C 19.035156 -59.957031 15.992188 -54.335938 13.953125 -48.796875 C 11.910156 -43.265625 10.890625 -38 10.890625 -33 C 10.890625 -28.3125 11.734375 -24.113281 13.421875 -20.40625 C 15.117188 -16.695312 17.523438 -13.5625 20.640625 -11 C 23.765625 -8.445312 27.503906 -6.484375 31.859375 -5.109375 C 36.210938 -3.742188 41.023438 -3.0625 46.296875 -3.0625 C 51.566406 -3.0625 57.050781 -4.015625 62.75 -5.921875 C 68.457031 -7.835938 74.023438 -10.769531 79.453125 -14.71875 C 84.890625 -18.675781 90.050781 -23.675781 94.9375 -29.71875 C 99.832031 -35.769531 104.109375 -42.960938 107.765625 -51.296875 C 106.796875 -51.296875 105.800781 -51.578125 104.78125 -52.140625 C 103.757812 -52.710938 103.25 -53.617188 103.25 -54.859375 C 103.25 -56.140625 103.867188 -57.0625 105.109375 -57.625 C 106.347656 -58.195312 108.285156 -58.671875 110.921875 -59.046875 C 112.367188 -63.453125 113.84375 -67.859375 115.34375 -72.265625 C 116.851562 -76.679688 118.519531 -81.039062 120.34375 -85.34375 C 122.175781 -89.644531 124.191406 -93.878906 126.390625 -98.046875 C 128.597656 -102.210938 131.15625 -106.285156 134.0625 -110.265625 Z M 134.0625 -110.265625 "/></g></g><g style="fill:#ffffff;fill-opacity:1;"><g transform="translate(22.359377, 414.967471)"><path style="stroke:none" d="M 151.484375 -56.0625 C 156.109375 -54.769531 160.046875 -53.289062 163.296875 -51.625 C 166.554688 -49.957031 169.300781 -48.222656 171.53125 -46.421875 C 173.769531 -44.617188 175.53125 -42.773438 176.8125 -40.890625 C 178.101562 -39.015625 179.097656 -37.210938 179.796875 -35.484375 C 180.503906 -33.765625 180.953125 -32.164062 181.140625 -30.6875 C 181.328125 -29.207031 181.421875 -27.957031 181.421875 -26.9375 C 181.421875 -23.175781 180.707031 -19.816406 179.28125 -16.859375 C 177.851562 -13.898438 175.925781 -11.289062 173.5 -9.03125 C 171.082031 -6.769531 168.273438 -4.859375 165.078125 -3.296875 C 161.878906 -1.742188 158.53125 -0.472656 155.03125 0.515625 C 151.539062 1.515625 147.96875 2.242188 144.3125 2.703125 C 140.65625 3.160156 137.1875 3.390625 133.90625 3.390625 C 128.582031 3.390625 123.082031 2.847656 117.40625 1.765625 C 111.738281 0.691406 106 -1.050781 100.1875 -3.46875 C 98.894531 -4.007812 98.25 -4.953125 98.25 -6.296875 C 98.25 -7.203125 98.570312 -7.9375 99.21875 -8.5 C 99.863281 -9.070312 100.5625 -9.359375 101.3125 -9.359375 C 101.6875 -9.359375 102.09375 -9.273438 102.53125 -9.109375 C 107.53125 -7.015625 112.664062 -5.429688 117.9375 -4.359375 C 123.207031 -3.285156 128.503906 -2.75 133.828125 -2.75 C 141.085938 -2.75 147.320312 -3.445312 152.53125 -4.84375 C 157.75 -6.238281 162.039062 -8.078125 165.40625 -10.359375 C 168.769531 -12.648438 171.253906 -15.234375 172.859375 -18.109375 C 174.472656 -20.984375 175.28125 -23.898438 175.28125 -26.859375 C 175.28125 -30.140625 174.378906 -33.175781 172.578125 -35.96875 C 170.773438 -38.769531 168.21875 -41.269531 164.90625 -43.46875 C 161.601562 -45.675781 157.640625 -47.5625 153.015625 -49.125 C 148.390625 -50.6875 143.253906 -51.84375 137.609375 -52.59375 C 133.898438 -51.945312 130.296875 -51.488281 126.796875 -51.21875 C 123.304688 -50.945312 120.082031 -50.8125 117.125 -50.8125 L 115.265625 -50.8125 C 114.890625 -50.8125 114.539062 -50.84375 114.21875 -50.90625 C 110.351562 -41.59375 105.742188 -33.546875 100.390625 -26.765625 C 95.035156 -19.992188 89.332031 -14.390625 83.28125 -9.953125 C 77.238281 -5.523438 71.03125 -2.25 64.65625 -0.125 C 58.28125 2 52.160156 3.0625 46.296875 3.0625 C 40.222656 3.0625 34.644531 2.210938 29.5625 0.515625 C 24.476562 -1.171875 20.109375 -3.570312 16.453125 -6.6875 C 12.796875 -9.8125 9.945312 -13.59375 7.90625 -18.03125 C 5.863281 -22.46875 4.84375 -27.425781 4.84375 -32.90625 C 4.84375 -38.613281 5.957031 -44.515625 8.1875 -50.609375 C 10.414062 -56.710938 13.738281 -62.914062 18.15625 -69.21875 C 22.34375 -75.125 26.988281 -80.429688 32.09375 -85.140625 C 37.207031 -89.847656 42.570312 -93.972656 48.1875 -97.515625 C 53.8125 -101.066406 59.609375 -104.109375 65.578125 -106.640625 C 71.546875 -109.171875 77.472656 -111.238281 83.359375 -112.84375 C 89.253906 -114.457031 95.007812 -115.628906 100.625 -116.359375 C 106.25 -117.085938 111.535156 -117.453125 116.484375 -117.453125 C 120.515625 -117.453125 124.359375 -117.316406 128.015625 -117.046875 C 131.671875 -116.773438 135.164062 -116.367188 138.5 -115.828125 C 140.4375 -117.984375 141.992188 -119.53125 143.171875 -120.46875 C 144.359375 -121.414062 145.035156 -121.941406 145.203125 -122.046875 C 145.847656 -122.367188 146.410156 -122.53125 146.890625 -122.53125 C 147.640625 -122.53125 148.3125 -122.3125 148.90625 -121.875 C 149.5 -121.445312 149.796875 -120.832031 149.796875 -120.03125 C 149.796875 -118.957031 149.414062 -118.054688 148.65625 -117.328125 C 147.90625 -116.597656 146.882812 -115.617188 145.59375 -114.390625 C 155.4375 -111.960938 162.96875 -108.316406 168.1875 -103.453125 C 173.40625 -98.585938 176.015625 -92.578125 176.015625 -85.421875 C 176.015625 -81.492188 175.367188 -77.96875 174.078125 -74.84375 C 172.785156 -71.726562 171.019531 -68.988281 168.78125 -66.625 C 166.550781 -64.257812 163.941406 -62.203125 160.953125 -60.453125 C 157.972656 -58.710938 154.816406 -57.25 151.484375 -56.0625 Z M 137.703125 -58.71875 C 140.066406 -59.15625 142.5 -59.722656 145 -60.421875 C 147.5 -61.117188 149.941406 -61.960938 152.328125 -62.953125 C 154.722656 -63.953125 156.992188 -65.132812 159.140625 -66.5 C 161.296875 -67.875 163.164062 -69.488281 164.75 -71.34375 C 166.34375 -73.195312 167.609375 -75.28125 168.546875 -77.59375 C 169.492188 -79.90625 169.96875 -82.539062 169.96875 -85.5 C 169.96875 -91.53125 167.460938 -96.503906 162.453125 -100.421875 C 157.453125 -104.347656 150.273438 -107.253906 140.921875 -109.140625 C 138.234375 -105.804688 135.707031 -102.125 133.34375 -98.09375 C 130.976562 -94.0625 128.800781 -89.878906 126.8125 -85.546875 C 124.820312 -81.210938 123.03125 -76.828125 121.4375 -72.390625 C 119.851562 -67.960938 118.550781 -63.675781 117.53125 -59.53125 C 118.601562 -59.582031 119.597656 -59.609375 120.515625 -59.609375 C 121.429688 -59.609375 122.210938 -59.609375 122.859375 -59.609375 C 124.953125 -59.609375 127.234375 -59.539062 129.703125 -59.40625 C 132.179688 -59.269531 134.847656 -59.039062 137.703125 -58.71875 Z M 134.0625 -110.265625 C 131.320312 -110.640625 128.5 -110.90625 125.59375 -111.0625 C 122.6875 -111.226562 119.648438 -111.3125 116.484375 -111.3125 C 111.742188 -111.3125 106.710938 -110.960938 101.390625 -110.265625 C 96.066406 -109.566406 90.609375 -108.460938 85.015625 -106.953125 C 79.421875 -105.453125 73.785156 -103.503906 68.109375 -101.109375 C 62.441406 -98.722656 56.929688 -95.847656 51.578125 -92.484375 C 46.234375 -89.117188 41.140625 -85.203125 36.296875 -80.734375 C 31.460938 -76.273438 27.054688 -71.25 23.078125 -65.65625 C 19.035156 -59.957031 15.992188 -54.335938 13.953125 -48.796875 C 11.910156 -43.265625 10.890625 -38 10.890625 -33 C 10.890625 -28.3125 11.734375 -24.113281 13.421875 -20.40625 C 15.117188 -16.695312 17.523438 -13.5625 20.640625 -11 C 23.765625 -8.445312 27.503906 -6.484375 31.859375 -5.109375 C 36.210938 -3.742188 41.023438 -3.0625 46.296875 -3.0625 C 51.566406 -3.0625 57.050781 -4.015625 62.75 -5.921875 C 68.457031 -7.835938 74.023438 -10.769531 79.453125 -14.71875 C 84.890625 -18.675781 90.050781 -23.675781 94.9375 -29.71875 C 99.832031 -35.769531 104.109375 -42.960938 107.765625 -51.296875 C 106.796875 -51.296875 105.800781 -51.578125 104.78125 -52.140625 C 103.757812 -52.710938 103.25 -53.617188 103.25 -54.859375 C 103.25 -56.140625 103.867188 -57.0625 105.109375 -57.625 C 106.347656 -58.195312 108.285156 -58.671875 110.921875 -59.046875 C 112.367188 -63.453125 113.84375 -67.859375 115.34375 -72.265625 C 116.851562 -76.679688 118.519531 -81.039062 120.34375 -85.34375 C 122.175781 -89.644531 124.191406 -93.878906 126.390625 -98.046875 C 128.597656 -102.210938 131.15625 -106.285156 134.0625 -110.265625 Z M 134.0625 -110.265625 "/></g></g><g style="fill:#ffffff;fill-opacity:1;"><g transform="translate(222.106831, 409.548707)"><path style="stroke:none" d="M 86.609375 -26.53125 C 87.097656 -25.976562 87.304688 -25.320312 87.234375 -24.5625 C 87.160156 -23.8125 86.816406 -23.195312 86.203125 -22.71875 C 85.921875 -22.507812 84.679688 -21.59375 82.484375 -19.96875 C 80.285156 -18.351562 77.328125 -16.425781 73.609375 -14.1875 C 69.890625 -11.957031 65.585938 -9.738281 60.703125 -7.53125 C 55.816406 -5.332031 50.582031 -3.507812 45 -2.0625 C 39.425781 -0.613281 33.679688 0.109375 27.765625 0.109375 C 20.742188 0.171875 14 -1.101562 7.53125 -3.71875 C 3.957031 -5.164062 1.445312 -6.851562 0 -8.78125 C -1.445312 -10.707031 -2.269531 -12.597656 -2.46875 -14.453125 C -2.675781 -16.304688 -2.644531 -17.890625 -2.375 -19.203125 C -1.75 -21.742188 -0.546875 -24.203125 1.234375 -26.578125 C 3.023438 -28.953125 5.125 -31.085938 7.53125 -32.984375 C 9.945312 -34.878906 12.410156 -36.34375 14.921875 -37.375 C 17.429688 -38.40625 19.71875 -38.851562 21.78125 -38.71875 C 23.632812 -38.71875 25.234375 -38.0625 26.578125 -36.75 C 27.921875 -35.445312 28.660156 -33.832031 28.796875 -31.90625 C 28.867188 -30.800781 28.59375 -29.4375 27.96875 -27.8125 C 27.351562 -26.195312 25.773438 -24.566406 23.234375 -22.921875 C 17.378906 -19.273438 10.976562 -17.65625 4.03125 -18.0625 C 3.6875 -18.132812 3.375 -18.066406 3.09375 -17.859375 C 2.820312 -17.648438 2.71875 -17.375 2.78125 -17.03125 C 2.71875 -16.414062 2.785156 -15.625 2.984375 -14.65625 C 3.191406 -13.695312 3.773438 -12.695312 4.734375 -11.65625 C 5.703125 -10.625 7.320312 -9.664062 9.59375 -8.78125 C 14.28125 -6.78125 19.082031 -5.640625 24 -5.359375 C 28.925781 -5.085938 33.757812 -5.398438 38.5 -6.296875 C 43.25 -7.191406 47.804688 -8.445312 52.171875 -10.0625 C 56.546875 -11.675781 60.570312 -13.445312 64.25 -15.375 C 67.9375 -17.300781 71.15625 -19.125 73.90625 -20.84375 C 76.664062 -22.570312 78.835938 -24.019531 80.421875 -25.1875 C 82.003906 -26.351562 82.796875 -26.9375 82.796875 -26.9375 C 83.410156 -27.425781 84.097656 -27.632812 84.859375 -27.5625 C 85.546875 -27.488281 86.128906 -27.144531 86.609375 -26.53125 Z M 6.40625 -24.359375 C 5.644531 -23.328125 5.726562 -22.757812 6.65625 -22.65625 C 7.582031 -22.550781 8.90625 -22.753906 10.625 -23.265625 C 12.351562 -23.785156 14.128906 -24.441406 15.953125 -25.234375 C 17.773438 -26.023438 19.238281 -26.765625 20.34375 -27.453125 C 22.46875 -28.898438 23.460938 -30.210938 23.328125 -31.390625 C 23.265625 -32.140625 23.078125 -32.632812 22.765625 -32.875 C 22.453125 -33.113281 22.019531 -33.269531 21.46875 -33.34375 C 19.269531 -33.476562 16.722656 -32.703125 13.828125 -31.015625 C 10.941406 -29.335938 8.46875 -27.117188 6.40625 -24.359375 Z M 6.40625 -24.359375 "/></g></g><g style="fill:#ffffff;fill-opacity:1;"><g transform="translate(308.099254, 409.548707)"><path style="stroke:none" d="M 84.96875 -19.921875 C 84.96875 -19.859375 84.378906 -19.101562 83.203125 -17.65625 C 82.035156 -16.207031 80.367188 -14.414062 78.203125 -12.28125 C 76.035156 -10.144531 73.398438 -8.023438 70.296875 -5.921875 C 67.203125 -3.828125 63.675781 -2.078125 59.71875 -0.671875 C 55.757812 0.734375 51.476562 1.4375 46.875 1.4375 C 41.78125 1.4375 36.890625 0.546875 32.203125 -1.234375 C 20.441406 -5.578125 12.164062 -12.253906 7.375 -21.265625 C 2.59375 -30.285156 1.613281 -41.019531 4.4375 -53.46875 C 5.75 -59.113281 7.765625 -64.8125 10.484375 -70.5625 C 13.203125 -76.3125 16.4375 -81.832031 20.1875 -87.125 C 23.9375 -92.425781 27.976562 -97.332031 32.3125 -101.84375 C 36.644531 -106.351562 41.082031 -110.257812 45.625 -113.5625 C 50.164062 -116.863281 54.640625 -119.359375 59.046875 -121.046875 C 63.453125 -122.734375 67.546875 -123.40625 71.328125 -123.0625 C 77.734375 -122.914062 83.035156 -120.398438 87.234375 -115.515625 C 88.054688 -114.421875 89.140625 -113.628906 90.484375 -113.140625 C 91.828125 -112.660156 93.1875 -112.554688 94.5625 -112.828125 C 98.6875 -113.867188 102.882812 -114.421875 107.15625 -114.484375 C 107.914062 -114.484375 108.566406 -114.222656 109.109375 -113.703125 C 109.660156 -113.191406 109.9375 -112.554688 109.9375 -111.796875 C 109.9375 -111.046875 109.660156 -110.410156 109.109375 -109.890625 C 108.566406 -109.378906 107.953125 -109.125 107.265625 -109.125 C 102.234375 -109.050781 97.34375 -108.257812 92.59375 -106.75 C 91.21875 -106.257812 90.566406 -105.296875 90.640625 -103.859375 C 90.429688 -100.410156 89.601562 -96.84375 88.15625 -93.15625 C 86.71875 -89.476562 84.878906 -85.921875 82.640625 -82.484375 C 80.398438 -79.046875 77.90625 -75.945312 75.15625 -73.1875 C 72.40625 -70.4375 69.566406 -68.21875 66.640625 -66.53125 C 63.710938 -64.84375 60.875 -63.96875 58.125 -63.90625 C 54.957031 -63.5625 52.476562 -64.726562 50.6875 -67.40625 C 48.625 -70.78125 49.347656 -75.597656 52.859375 -81.859375 C 59.535156 -92.804688 68.550781 -101.238281 79.90625 -107.15625 C 81.28125 -107.914062 82.070312 -109.085938 82.28125 -110.671875 C 82.414062 -112.316406 81.863281 -113.625 80.625 -114.59375 C 77.59375 -116.519531 74.320312 -117.550781 70.8125 -117.6875 C 67.71875 -117.957031 64.242188 -117.335938 60.390625 -115.828125 C 56.535156 -114.316406 52.539062 -112.046875 48.40625 -109.015625 C 44.28125 -105.984375 40.203125 -102.382812 36.171875 -98.21875 C 32.148438 -94.0625 28.367188 -89.503906 24.828125 -84.546875 C 21.285156 -79.585938 18.207031 -74.375 15.59375 -68.90625 C 12.976562 -63.4375 11.015625 -57.878906 9.703125 -52.234375 C 8.878906 -48.378906 8.445312 -44.285156 8.40625 -39.953125 C 8.375 -35.617188 9.113281 -31.351562 10.625 -27.15625 C 12.144531 -22.957031 14.78125 -19.050781 18.53125 -15.4375 C 22.28125 -11.820312 27.457031 -8.8125 34.0625 -6.40625 C 38.675781 -4.675781 43.015625 -3.847656 47.078125 -3.921875 C 51.140625 -3.992188 54.875 -4.628906 58.28125 -5.828125 C 61.6875 -7.035156 64.726562 -8.550781 67.40625 -10.375 C 70.09375 -12.195312 72.378906 -14.035156 74.265625 -15.890625 C 76.160156 -17.753906 77.640625 -19.335938 78.703125 -20.640625 C 79.773438 -21.953125 80.378906 -22.710938 80.515625 -22.921875 C 80.929688 -23.535156 81.5 -23.910156 82.21875 -24.046875 C 82.945312 -24.191406 83.617188 -24.054688 84.234375 -23.640625 C 84.859375 -23.222656 85.238281 -22.65625 85.375 -21.9375 C 85.507812 -21.21875 85.375 -20.546875 84.96875 -19.921875 Z M 58.015625 -69.375 C 60.148438 -69.445312 62.503906 -70.304688 65.078125 -71.953125 C 67.660156 -73.609375 70.222656 -75.796875 72.765625 -78.515625 C 75.316406 -81.234375 77.609375 -84.257812 79.640625 -87.59375 C 81.671875 -90.925781 83.171875 -94.28125 84.140625 -97.65625 C 84.484375 -98.96875 84.140625 -100 83.109375 -100.75 C 82.078125 -101.582031 80.972656 -101.65625 79.796875 -100.96875 C 70.578125 -95.59375 63.179688 -88.363281 57.609375 -79.28125 C 56.296875 -76.945312 55.5 -75.003906 55.21875 -73.453125 C 54.945312 -71.898438 54.984375 -70.816406 55.328125 -70.203125 C 55.535156 -69.859375 55.914062 -69.632812 56.46875 -69.53125 C 57.019531 -69.425781 57.535156 -69.375 58.015625 -69.375 Z M 58.015625 -69.375 "/></g></g><g style="fill:#ffffff;fill-opacity:1;"><g transform="translate(402.866359, 409.548707)"><path style="stroke:none" d="M 89.609375 -29.015625 C 90.160156 -28.523438 90.4375 -27.90625 90.4375 -27.15625 C 90.4375 -26.394531 90.191406 -25.738281 89.703125 -25.1875 C 87.085938 -22.5 83.867188 -19.660156 80.046875 -16.671875 C 76.234375 -13.679688 72.070312 -10.859375 67.5625 -8.203125 C 63.0625 -5.554688 58.453125 -3.421875 53.734375 -1.796875 C 49.015625 -0.179688 44.523438 0.625 40.265625 0.625 L 40.0625 0.625 C 34.070312 0.820312 29.046875 -1.242188 24.984375 -5.578125 C 23.265625 -7.503906 22.234375 -9.738281 21.890625 -12.28125 C 21.742188 -13.25 21.191406 -13.867188 20.234375 -14.140625 C 19.335938 -14.421875 18.546875 -14.21875 17.859375 -13.53125 C 15.796875 -11.320312 13.628906 -9.375 11.359375 -7.6875 C 9.085938 -6 6.847656 -4.84375 4.640625 -4.21875 C 2.441406 -3.601562 0.414062 -3.847656 -1.4375 -4.953125 C -3.226562 -5.984375 -4.207031 -7.566406 -4.375 -9.703125 C -4.550781 -11.835938 -4.257812 -14.175781 -3.5 -16.71875 C -2.75 -19.269531 -1.804688 -21.734375 -0.671875 -24.109375 C 0.460938 -26.484375 1.441406 -28.425781 2.265625 -29.9375 C 2.679688 -30.550781 3.234375 -30.945312 3.921875 -31.125 C 4.609375 -31.300781 5.265625 -31.210938 5.890625 -30.859375 C 6.503906 -30.515625 6.914062 -30 7.125 -29.3125 C 7.332031 -28.625 7.296875 -27.9375 7.015625 -27.25 C 5.296875 -24.289062 3.9375 -21.519531 2.9375 -18.9375 C 1.9375 -16.363281 1.300781 -14.234375 1.03125 -12.546875 C 0.757812 -10.859375 0.863281 -9.875 1.34375 -9.59375 C 2.238281 -9.050781 3.5625 -9.257812 5.3125 -10.21875 C 7.070312 -11.1875 9.050781 -12.679688 11.25 -14.703125 C 13.457031 -16.734375 15.695312 -19.109375 17.96875 -21.828125 C 20.238281 -24.546875 22.335938 -27.316406 24.265625 -30.140625 C 24.671875 -30.765625 25.203125 -31.144531 25.859375 -31.28125 C 26.515625 -31.414062 27.148438 -31.347656 27.765625 -31.078125 C 28.390625 -30.734375 28.820312 -30.25 29.0625 -29.625 C 29.300781 -29.007812 29.316406 -28.390625 29.109375 -27.765625 C 28.765625 -26.867188 28.398438 -25.613281 28.015625 -24 C 27.640625 -22.382812 27.347656 -20.628906 27.140625 -18.734375 C 26.941406 -16.835938 26.960938 -15.03125 27.203125 -13.3125 C 27.441406 -11.59375 28.007812 -10.21875 28.90625 -9.1875 C 32 -6.09375 35.71875 -4.613281 40.0625 -4.75 L 40.265625 -4.75 C 44.117188 -4.75 48.195312 -5.539062 52.5 -7.125 C 56.800781 -8.707031 61.050781 -10.738281 65.25 -13.21875 C 69.445312 -15.695312 73.332031 -18.328125 76.90625 -21.109375 C 80.488281 -23.898438 83.414062 -26.5 85.6875 -28.90625 C 86.238281 -29.457031 86.890625 -29.765625 87.640625 -29.828125 C 88.398438 -29.828125 89.054688 -29.554688 89.609375 -29.015625 Z M 89.609375 -29.015625 "/></g></g><g style="fill:#ffffff;fill-opacity:1;"><g transform="translate(491.542804, 409.548707)"><path style="stroke:none" d="M 89.09375 -27.15625 C 89.570312 -26.601562 89.8125 -25.984375 89.8125 -25.296875 C 89.8125 -24.535156 89.535156 -23.878906 88.984375 -23.328125 C 85.410156 -19.816406 81.421875 -16.804688 77.015625 -14.296875 C 72.609375 -11.785156 68.046875 -9.703125 63.328125 -8.046875 C 58.617188 -6.398438 54.046875 -5.179688 49.609375 -4.390625 C 45.171875 -3.597656 41.125 -3.203125 37.46875 -3.203125 C 33.550781 -2.992188 29.769531 -3.71875 26.125 -5.375 C 23.644531 -6.8125 21.972656 -8.390625 21.109375 -10.109375 C 20.253906 -11.835938 19.894531 -13.613281 20.03125 -15.4375 C 20.164062 -17.257812 20.5625 -18.976562 21.21875 -20.59375 C 21.875 -22.207031 22.507812 -23.601562 23.125 -24.78125 C 23.257812 -25.050781 23.1875 -25.253906 22.90625 -25.390625 C 22.632812 -25.535156 22.15625 -25.429688 21.46875 -25.078125 C 17.6875 -23.015625 13.628906 -22.085938 9.296875 -22.296875 C 7.367188 -22.234375 5.472656 -22.613281 3.609375 -23.4375 C 2.921875 -23.226562 2.234375 -23.296875 1.546875 -23.640625 C 0.441406 -24.191406 -0.0351562 -25.085938 0.109375 -26.328125 C -0.921875 -27.566406 -1.644531 -28.976562 -2.0625 -30.5625 C -2.882812 -33.382812 -2.8125 -36.171875 -1.84375 -38.921875 C -0.882812 -41.671875 0.796875 -43.941406 3.203125 -45.734375 C 6.085938 -47.453125 8.359375 -47.519531 10.015625 -45.9375 C 10.222656 -45.726562 10.476562 -45.363281 10.78125 -44.84375 C 11.09375 -44.332031 11.28125 -43.523438 11.34375 -42.421875 C 11.414062 -41.328125 11.191406 -39.78125 10.671875 -37.78125 C 10.160156 -35.789062 9.1875 -33.175781 7.75 -29.9375 C 7.601562 -29.664062 7.703125 -29.21875 8.046875 -28.59375 C 8.390625 -27.976562 8.804688 -27.671875 9.296875 -27.671875 C 13.285156 -27.671875 17.035156 -28.664062 20.546875 -30.65625 C 21.710938 -31.28125 22.945312 -31.796875 24.25 -32.203125 C 25.5625 -32.617188 26.941406 -32.273438 28.390625 -31.171875 C 29.835938 -30.078125 30.316406 -28.71875 29.828125 -27.09375 C 29.347656 -25.476562 28.726562 -23.914062 27.96875 -22.40625 C 26.394531 -19.164062 25.570312 -16.632812 25.5 -14.8125 C 25.425781 -12.988281 26.5625 -11.390625 28.90625 -10.015625 C 30.207031 -9.253906 32.425781 -8.785156 35.5625 -8.609375 C 38.695312 -8.441406 42.34375 -8.6875 46.5 -9.34375 C 50.664062 -10 55.054688 -11.066406 59.671875 -12.546875 C 64.285156 -14.023438 68.789062 -15.96875 73.1875 -18.375 C 77.59375 -20.78125 81.585938 -23.738281 85.171875 -27.25 C 85.722656 -27.726562 86.375 -27.96875 87.125 -27.96875 C 87.882812 -27.96875 88.539062 -27.695312 89.09375 -27.15625 Z M 3 -32.828125 C 4.238281 -35.441406 5.203125 -38.160156 5.890625 -40.984375 C 3.335938 -38.785156 2.375 -36.066406 3 -32.828125 Z M 3 -32.828125 "/></g></g><g style="fill:#ffffff;fill-opacity:1;"><g transform="translate(579.496635, 409.548707)"><path style="stroke:none" d="M 71.03125 -26.53125 C 71.570312 -25.976562 71.84375 -25.320312 71.84375 -24.5625 C 71.84375 -23.8125 71.570312 -23.160156 71.03125 -22.609375 C 70.820312 -22.398438 69.804688 -21.46875 67.984375 -19.8125 C 66.160156 -18.164062 63.765625 -16.207031 60.796875 -13.9375 C 57.835938 -11.664062 54.46875 -9.394531 50.6875 -7.125 C 46.90625 -4.851562 42.929688 -2.957031 38.765625 -1.4375 C 34.597656 0.0703125 30.414062 0.828125 26.21875 0.828125 C 23.675781 0.828125 21.195312 0.484375 18.78125 -0.203125 C 14.3125 -1.515625 10.578125 -4.21875 7.578125 -8.3125 C 4.585938 -12.40625 2.40625 -17.6875 1.03125 -24.15625 C 0.894531 -24.5 0.828125 -24.84375 0.828125 -25.1875 C 0.203125 -28.5625 -0.207031 -31.96875 -0.40625 -35.40625 C -0.613281 -39.882812 -0.53125 -44.566406 -0.15625 -49.453125 C 0.21875 -54.335938 0.851562 -59.132812 1.75 -63.84375 C 2.644531 -68.5625 3.796875 -72.929688 5.203125 -76.953125 C 6.617188 -80.984375 8.203125 -84.375 9.953125 -87.125 C 11.710938 -89.882812 13.660156 -91.742188 15.796875 -92.703125 C 17.242188 -93.328125 18.757812 -93.429688 20.34375 -93.015625 C 21.925781 -92.597656 23.195312 -91.769531 24.15625 -90.53125 C 25.664062 -88.945312 26.472656 -86.660156 26.578125 -83.671875 C 26.679688 -80.679688 26.320312 -77.257812 25.5 -73.40625 C 24.675781 -69.550781 23.539062 -65.488281 22.09375 -61.21875 C 20.644531 -56.945312 19.0625 -52.742188 17.34375 -48.609375 C 15.625 -44.484375 13.9375 -40.628906 12.28125 -37.046875 C 10.632812 -33.472656 9.222656 -30.484375 8.046875 -28.078125 C 6.953125 -25.804688 6.75 -23.5 7.4375 -21.15625 C 8.46875 -17.582031 10 -14.332031 12.03125 -11.40625 C 14.0625 -8.476562 16.832031 -6.46875 20.34375 -5.375 C 23.570312 -4.40625 26.957031 -4.226562 30.5 -4.84375 C 34.050781 -5.46875 37.5625 -6.585938 41.03125 -8.203125 C 44.507812 -9.828125 47.8125 -11.648438 50.9375 -13.671875 C 54.070312 -15.703125 56.84375 -17.679688 59.25 -19.609375 C 61.664062 -21.535156 63.578125 -23.148438 64.984375 -24.453125 C 66.398438 -25.765625 67.140625 -26.457031 67.203125 -26.53125 C 67.753906 -27.007812 68.410156 -27.25 69.171875 -27.25 C 69.859375 -27.25 70.476562 -27.007812 71.03125 -26.53125 Z M 5.375 -36.953125 C 5.4375 -36.472656 5.671875 -36.144531 6.078125 -35.96875 C 6.492188 -35.800781 6.84375 -35.925781 7.125 -36.34375 C 8.019531 -37.78125 9.050781 -39.910156 10.21875 -42.734375 C 11.382812 -45.554688 12.585938 -48.753906 13.828125 -52.328125 C 15.066406 -55.910156 16.203125 -59.5625 17.234375 -63.28125 C 18.265625 -67 19.125 -70.507812 19.8125 -73.8125 C 20.507812 -77.113281 20.925781 -79.929688 21.0625 -82.265625 C 21.195312 -84.609375 20.921875 -86.125 20.234375 -86.8125 C 19.617188 -87.507812 19.035156 -87.859375 18.484375 -87.859375 C 18.273438 -87.859375 18.066406 -87.820312 17.859375 -87.75 C 16.828125 -87.269531 15.640625 -85.789062 14.296875 -83.3125 C 12.953125 -80.832031 11.625 -77.695312 10.3125 -73.90625 C 9.007812 -70.125 7.859375 -66.03125 6.859375 -61.625 C 5.867188 -57.226562 5.195312 -52.878906 4.84375 -48.578125 C 4.5 -44.273438 4.675781 -40.398438 5.375 -36.953125 Z M 5.375 -36.953125 "/></g></g><g style="fill:#ffffff;fill-opacity:1;"><g transform="translate(650.830204, 409.548707)"><path style="stroke:none" d="M 81.65625 -28.5 C 82.207031 -27.945312 82.484375 -27.289062 82.484375 -26.53125 C 82.484375 -25.769531 82.242188 -25.148438 81.765625 -24.671875 C 78.734375 -21.785156 75.289062 -19.648438 71.4375 -18.265625 C 67.582031 -16.890625 63.609375 -16.335938 59.515625 -16.609375 C 55.421875 -16.890625 51.515625 -17.992188 47.796875 -19.921875 C 46.628906 -20.546875 45.40625 -20.753906 44.125 -20.546875 C 42.851562 -20.335938 41.738281 -19.785156 40.78125 -18.890625 C 37.539062 -15.585938 34.304688 -11.90625 31.078125 -7.84375 C 30.734375 -7.5 30.523438 -7.085938 30.453125 -6.609375 C 29.765625 -2.335938 28.882812 2.015625 27.8125 6.453125 C 26.75 10.890625 25.5625 15.238281 24.25 19.5 C 22.945312 23.769531 21.570312 27.691406 20.125 31.265625 C 18.6875 34.847656 17.226562 37.878906 15.75 40.359375 C 14.269531 42.835938 12.835938 44.523438 11.453125 45.421875 C 10.492188 46.109375 9.460938 46.453125 8.359375 46.453125 C 6.910156 46.453125 5.707031 45.9375 4.75 44.90625 C 2.476562 42.5 1.476562 39.644531 1.75 36.34375 C 1.820312 33.445312 2.507812 30.175781 3.8125 26.53125 C 5.125 22.882812 6.863281 19.046875 9.03125 15.015625 C 11.195312 10.992188 13.65625 6.914062 16.40625 2.78125 C 19.164062 -1.34375 22.054688 -5.296875 25.078125 -9.078125 C 25.359375 -9.492188 25.535156 -9.941406 25.609375 -10.421875 C 26.015625 -12.421875 26.253906 -14.421875 26.328125 -16.421875 C 24.671875 -13.109375 22.394531 -10.265625 19.5 -7.890625 C 16.613281 -5.515625 13.347656 -3.8125 9.703125 -2.78125 C 8.117188 -2.300781 6.519531 -2.285156 4.90625 -2.734375 C 3.289062 -3.179688 1.929688 -4.023438 0.828125 -5.265625 C -0.0664062 -6.222656 -0.769531 -7.664062 -1.28125 -9.59375 C -1.800781 -11.519531 -1.851562 -14.050781 -1.4375 -17.1875 C -1.03125 -20.320312 0.101562 -24.265625 1.96875 -29.015625 C 2.238281 -29.703125 2.734375 -30.195312 3.453125 -30.5 C 4.179688 -30.8125 4.890625 -30.832031 5.578125 -30.5625 C 6.265625 -30.28125 6.742188 -29.796875 7.015625 -29.109375 C 7.296875 -28.421875 7.296875 -27.734375 7.015625 -27.046875 C 5.222656 -22.640625 4.171875 -19.160156 3.859375 -16.609375 C 3.554688 -14.066406 3.578125 -12.210938 3.921875 -11.046875 C 4.265625 -9.878906 4.578125 -9.125 4.859375 -8.78125 C 5.890625 -7.8125 7.054688 -7.566406 8.359375 -8.046875 C 11.179688 -8.804688 13.585938 -10.03125 15.578125 -11.71875 C 17.578125 -13.40625 19.226562 -15.28125 20.53125 -17.34375 C 21.84375 -19.40625 22.878906 -21.398438 23.640625 -23.328125 C 24.398438 -25.253906 24.929688 -26.867188 25.234375 -28.171875 C 25.546875 -29.484375 25.703125 -30.140625 25.703125 -30.140625 C 25.984375 -31.515625 26.773438 -32.273438 28.078125 -32.421875 C 29.453125 -32.554688 30.414062 -31.96875 30.96875 -30.65625 C 31.65625 -28.59375 32 -26.492188 32 -24.359375 C 32.070312 -23.117188 32.691406 -22.296875 33.859375 -21.890625 C 34.960938 -21.398438 35.960938 -21.601562 36.859375 -22.5 C 38.640625 -24.363281 40.394531 -26.085938 42.125 -27.671875 C 43.21875 -28.628906 44.351562 -28.660156 45.53125 -27.765625 C 49.175781 -25.085938 52.613281 -23.367188 55.84375 -22.609375 C 59.082031 -21.847656 62.007812 -21.65625 64.625 -22.03125 C 67.238281 -22.414062 69.523438 -23.109375 71.484375 -24.109375 C 73.453125 -25.109375 74.984375 -26.050781 76.078125 -26.9375 C 77.179688 -27.832031 77.769531 -28.316406 77.84375 -28.390625 C 78.394531 -28.941406 79.046875 -29.21875 79.796875 -29.21875 C 80.554688 -29.21875 81.175781 -28.976562 81.65625 -28.5 Z M 22.71875 4.75 C 22.851562 4.332031 22.800781 4.085938 22.5625 4.015625 C 22.320312 3.953125 22.097656 4.09375 21.890625 4.4375 C 19.128906 8.5 16.648438 12.507812 14.453125 16.46875 C 12.253906 20.425781 10.515625 24.125 9.234375 27.5625 C 7.960938 31 7.289062 33.957031 7.21875 36.4375 C 7.21875 37.46875 7.304688 38.445312 7.484375 39.375 C 7.660156 40.3125 7.988281 40.847656 8.46875 40.984375 C 8.945312 41.054688 9.515625 40.59375 10.171875 39.59375 C 10.828125 38.59375 11.738281 36.890625 12.90625 34.484375 C 17.238281 24.910156 20.507812 15 22.71875 4.75 Z M 22.71875 4.75 "/></g></g><g style="fill:#ffffff;fill-opacity:1;"><g transform="translate(220.027236, 408.249244)"><path style="stroke:none" d="M 86.609375 -26.53125 C 87.097656 -25.976562 87.304688 -25.320312 87.234375 -24.5625 C 87.160156 -23.8125 86.816406 -23.195312 86.203125 -22.71875 C 85.921875 -22.507812 84.679688 -21.59375 82.484375 -19.96875 C 80.285156 -18.351562 77.328125 -16.425781 73.609375 -14.1875 C 69.890625 -11.957031 65.585938 -9.738281 60.703125 -7.53125 C 55.816406 -5.332031 50.582031 -3.507812 45 -2.0625 C 39.425781 -0.613281 33.679688 0.109375 27.765625 0.109375 C 20.742188 0.171875 14 -1.101562 7.53125 -3.71875 C 3.957031 -5.164062 1.445312 -6.851562 0 -8.78125 C -1.445312 -10.707031 -2.269531 -12.597656 -2.46875 -14.453125 C -2.675781 -16.304688 -2.644531 -17.890625 -2.375 -19.203125 C -1.75 -21.742188 -0.546875 -24.203125 1.234375 -26.578125 C 3.023438 -28.953125 5.125 -31.085938 7.53125 -32.984375 C 9.945312 -34.878906 12.410156 -36.34375 14.921875 -37.375 C 17.429688 -38.40625 19.71875 -38.851562 21.78125 -38.71875 C 23.632812 -38.71875 25.234375 -38.0625 26.578125 -36.75 C 27.921875 -35.445312 28.660156 -33.832031 28.796875 -31.90625 C 28.867188 -30.800781 28.59375 -29.4375 27.96875 -27.8125 C 27.351562 -26.195312 25.773438 -24.566406 23.234375 -22.921875 C 17.378906 -19.273438 10.976562 -17.65625 4.03125 -18.0625 C 3.6875 -18.132812 3.375 -18.066406 3.09375 -17.859375 C 2.820312 -17.648438 2.71875 -17.375 2.78125 -17.03125 C 2.71875 -16.414062 2.785156 -15.625 2.984375 -14.65625 C 3.191406 -13.695312 3.773438 -12.695312 4.734375 -11.65625 C 5.703125 -10.625 7.320312 -9.664062 9.59375 -8.78125 C 14.28125 -6.78125 19.082031 -5.640625 24 -5.359375 C 28.925781 -5.085938 33.757812 -5.398438 38.5 -6.296875 C 43.25 -7.191406 47.804688 -8.445312 52.171875 -10.0625 C 56.546875 -11.675781 60.570312 -13.445312 64.25 -15.375 C 67.9375 -17.300781 71.15625 -19.125 73.90625 -20.84375 C 76.664062 -22.570312 78.835938 -24.019531 80.421875 -25.1875 C 82.003906 -26.351562 82.796875 -26.9375 82.796875 -26.9375 C 83.410156 -27.425781 84.097656 -27.632812 84.859375 -27.5625 C 85.546875 -27.488281 86.128906 -27.144531 86.609375 -26.53125 Z M 6.40625 -24.359375 C 5.644531 -23.328125 5.726562 -22.757812 6.65625 -22.65625 C 7.582031 -22.550781 8.90625 -22.753906 10.625 -23.265625 C 12.351562 -23.785156 14.128906 -24.441406 15.953125 -25.234375 C 17.773438 -26.023438 19.238281 -26.765625 20.34375 -27.453125 C 22.46875 -28.898438 23.460938 -30.210938 23.328125 -31.390625 C 23.265625 -32.140625 23.078125 -32.632812 22.765625 -32.875 C 22.453125 -33.113281 22.019531 -33.269531 21.46875 -33.34375 C 19.269531 -33.476562 16.722656 -32.703125 13.828125 -31.015625 C 10.941406 -29.335938 8.46875 -27.117188 6.40625 -24.359375 Z M 6.40625 -24.359375 "/></g></g><g style="fill:#ffffff;fill-opacity:1;"><g transform="translate(306.019658, 408.249244)"><path style="stroke:none" d="M 84.96875 -19.921875 C 84.96875 -19.859375 84.378906 -19.101562 83.203125 -17.65625 C 82.035156 -16.207031 80.367188 -14.414062 78.203125 -12.28125 C 76.035156 -10.144531 73.398438 -8.023438 70.296875 -5.921875 C 67.203125 -3.828125 63.675781 -2.078125 59.71875 -0.671875 C 55.757812 0.734375 51.476562 1.4375 46.875 1.4375 C 41.78125 1.4375 36.890625 0.546875 32.203125 -1.234375 C 20.441406 -5.578125 12.164062 -12.253906 7.375 -21.265625 C 2.59375 -30.285156 1.613281 -41.019531 4.4375 -53.46875 C 5.75 -59.113281 7.765625 -64.8125 10.484375 -70.5625 C 13.203125 -76.3125 16.4375 -81.832031 20.1875 -87.125 C 23.9375 -92.425781 27.976562 -97.332031 32.3125 -101.84375 C 36.644531 -106.351562 41.082031 -110.257812 45.625 -113.5625 C 50.164062 -116.863281 54.640625 -119.359375 59.046875 -121.046875 C 63.453125 -122.734375 67.546875 -123.40625 71.328125 -123.0625 C 77.734375 -122.914062 83.035156 -120.398438 87.234375 -115.515625 C 88.054688 -114.421875 89.140625 -113.628906 90.484375 -113.140625 C 91.828125 -112.660156 93.1875 -112.554688 94.5625 -112.828125 C 98.6875 -113.867188 102.882812 -114.421875 107.15625 -114.484375 C 107.914062 -114.484375 108.566406 -114.222656 109.109375 -113.703125 C 109.660156 -113.191406 109.9375 -112.554688 109.9375 -111.796875 C 109.9375 -111.046875 109.660156 -110.410156 109.109375 -109.890625 C 108.566406 -109.378906 107.953125 -109.125 107.265625 -109.125 C 102.234375 -109.050781 97.34375 -108.257812 92.59375 -106.75 C 91.21875 -106.257812 90.566406 -105.296875 90.640625 -103.859375 C 90.429688 -100.410156 89.601562 -96.84375 88.15625 -93.15625 C 86.71875 -89.476562 84.878906 -85.921875 82.640625 -82.484375 C 80.398438 -79.046875 77.90625 -75.945312 75.15625 -73.1875 C 72.40625 -70.4375 69.566406 -68.21875 66.640625 -66.53125 C 63.710938 -64.84375 60.875 -63.96875 58.125 -63.90625 C 54.957031 -63.5625 52.476562 -64.726562 50.6875 -67.40625 C 48.625 -70.78125 49.347656 -75.597656 52.859375 -81.859375 C 59.535156 -92.804688 68.550781 -101.238281 79.90625 -107.15625 C 81.28125 -107.914062 82.070312 -109.085938 82.28125 -110.671875 C 82.414062 -112.316406 81.863281 -113.625 80.625 -114.59375 C 77.59375 -116.519531 74.320312 -117.550781 70.8125 -117.6875 C 67.71875 -117.957031 64.242188 -117.335938 60.390625 -115.828125 C 56.535156 -114.316406 52.539062 -112.046875 48.40625 -109.015625 C 44.28125 -105.984375 40.203125 -102.382812 36.171875 -98.21875 C 32.148438 -94.0625 28.367188 -89.503906 24.828125 -84.546875 C 21.285156 -79.585938 18.207031 -74.375 15.59375 -68.90625 C 12.976562 -63.4375 11.015625 -57.878906 9.703125 -52.234375 C 8.878906 -48.378906 8.445312 -44.285156 8.40625 -39.953125 C 8.375 -35.617188 9.113281 -31.351562 10.625 -27.15625 C 12.144531 -22.957031 14.78125 -19.050781 18.53125 -15.4375 C 22.28125 -11.820312 27.457031 -8.8125 34.0625 -6.40625 C 38.675781 -4.675781 43.015625 -3.847656 47.078125 -3.921875 C 51.140625 -3.992188 54.875 -4.628906 58.28125 -5.828125 C 61.6875 -7.035156 64.726562 -8.550781 67.40625 -10.375 C 70.09375 -12.195312 72.378906 -14.035156 74.265625 -15.890625 C 76.160156 -17.753906 77.640625 -19.335938 78.703125 -20.640625 C 79.773438 -21.953125 80.378906 -22.710938 80.515625 -22.921875 C 80.929688 -23.535156 81.5 -23.910156 82.21875 -24.046875 C 82.945312 -24.191406 83.617188 -24.054688 84.234375 -23.640625 C 84.859375 -23.222656 85.238281 -22.65625 85.375 -21.9375 C 85.507812 -21.21875 85.375 -20.546875 84.96875 -19.921875 Z M 58.015625 -69.375 C 60.148438 -69.445312 62.503906 -70.304688 65.078125 -71.953125 C 67.660156 -73.609375 70.222656 -75.796875 72.765625 -78.515625 C 75.316406 -81.234375 77.609375 -84.257812 79.640625 -87.59375 C 81.671875 -90.925781 83.171875 -94.28125 84.140625 -97.65625 C 84.484375 -98.96875 84.140625 -100 83.109375 -100.75 C 82.078125 -101.582031 80.972656 -101.65625 79.796875 -100.96875 C 70.578125 -95.59375 63.179688 -88.363281 57.609375 -79.28125 C 56.296875 -76.945312 55.5 -75.003906 55.21875 -73.453125 C 54.945312 -71.898438 54.984375 -70.816406 55.328125 -70.203125 C 55.535156 -69.859375 55.914062 -69.632812 56.46875 -69.53125 C 57.019531 -69.425781 57.535156 -69.375 58.015625 -69.375 Z M 58.015625 -69.375 "/></g></g><g style="fill:#ffffff;fill-opacity:1;"><g transform="translate(400.786764, 408.249244)"><path style="stroke:none" d="M 89.609375 -29.015625 C 90.160156 -28.523438 90.4375 -27.90625 90.4375 -27.15625 C 90.4375 -26.394531 90.191406 -25.738281 89.703125 -25.1875 C 87.085938 -22.5 83.867188 -19.660156 80.046875 -16.671875 C 76.234375 -13.679688 72.070312 -10.859375 67.5625 -8.203125 C 63.0625 -5.554688 58.453125 -3.421875 53.734375 -1.796875 C 49.015625 -0.179688 44.523438 0.625 40.265625 0.625 L 40.0625 0.625 C 34.070312 0.820312 29.046875 -1.242188 24.984375 -5.578125 C 23.265625 -7.503906 22.234375 -9.738281 21.890625 -12.28125 C 21.742188 -13.25 21.191406 -13.867188 20.234375 -14.140625 C 19.335938 -14.421875 18.546875 -14.21875 17.859375 -13.53125 C 15.796875 -11.320312 13.628906 -9.375 11.359375 -7.6875 C 9.085938 -6 6.847656 -4.84375 4.640625 -4.21875 C 2.441406 -3.601562 0.414062 -3.847656 -1.4375 -4.953125 C -3.226562 -5.984375 -4.207031 -7.566406 -4.375 -9.703125 C -4.550781 -11.835938 -4.257812 -14.175781 -3.5 -16.71875 C -2.75 -19.269531 -1.804688 -21.734375 -0.671875 -24.109375 C 0.460938 -26.484375 1.441406 -28.425781 2.265625 -29.9375 C 2.679688 -30.550781 3.234375 -30.945312 3.921875 -31.125 C 4.609375 -31.300781 5.265625 -31.210938 5.890625 -30.859375 C 6.503906 -30.515625 6.914062 -30 7.125 -29.3125 C 7.332031 -28.625 7.296875 -27.9375 7.015625 -27.25 C 5.296875 -24.289062 3.9375 -21.519531 2.9375 -18.9375 C 1.9375 -16.363281 1.300781 -14.234375 1.03125 -12.546875 C 0.757812 -10.859375 0.863281 -9.875 1.34375 -9.59375 C 2.238281 -9.050781 3.5625 -9.257812 5.3125 -10.21875 C 7.070312 -11.1875 9.050781 -12.679688 11.25 -14.703125 C 13.457031 -16.734375 15.695312 -19.109375 17.96875 -21.828125 C 20.238281 -24.546875 22.335938 -27.316406 24.265625 -30.140625 C 24.671875 -30.765625 25.203125 -31.144531 25.859375 -31.28125 C 26.515625 -31.414062 27.148438 -31.347656 27.765625 -31.078125 C 28.390625 -30.734375 28.820312 -30.25 29.0625 -29.625 C 29.300781 -29.007812 29.316406 -28.390625 29.109375 -27.765625 C 28.765625 -26.867188 28.398438 -25.613281 28.015625 -24 C 27.640625 -22.382812 27.347656 -20.628906 27.140625 -18.734375 C 26.941406 -16.835938 26.960938 -15.03125 27.203125 -13.3125 C 27.441406 -11.59375 28.007812 -10.21875 28.90625 -9.1875 C 32 -6.09375 35.71875 -4.613281 40.0625 -4.75 L 40.265625 -4.75 C 44.117188 -4.75 48.195312 -5.539062 52.5 -7.125 C 56.800781 -8.707031 61.050781 -10.738281 65.25 -13.21875 C 69.445312 -15.695312 73.332031 -18.328125 76.90625 -21.109375 C 80.488281 -23.898438 83.414062 -26.5 85.6875 -28.90625 C 86.238281 -29.457031 86.890625 -29.765625 87.640625 -29.828125 C 88.398438 -29.828125 89.054688 -29.554688 89.609375 -29.015625 Z M 89.609375 -29.015625 "/></g></g><g style="fill:#ffffff;fill-opacity:1;"><g transform="translate(489.463209, 408.249244)"><path style="stroke:none" d="M 89.09375 -27.15625 C 89.570312 -26.601562 89.8125 -25.984375 89.8125 -25.296875 C 89.8125 -24.535156 89.535156 -23.878906 88.984375 -23.328125 C 85.410156 -19.816406 81.421875 -16.804688 77.015625 -14.296875 C 72.609375 -11.785156 68.046875 -9.703125 63.328125 -8.046875 C 58.617188 -6.398438 54.046875 -5.179688 49.609375 -4.390625 C 45.171875 -3.597656 41.125 -3.203125 37.46875 -3.203125 C 33.550781 -2.992188 29.769531 -3.71875 26.125 -5.375 C 23.644531 -6.8125 21.972656 -8.390625 21.109375 -10.109375 C 20.253906 -11.835938 19.894531 -13.613281 20.03125 -15.4375 C 20.164062 -17.257812 20.5625 -18.976562 21.21875 -20.59375 C 21.875 -22.207031 22.507812 -23.601562 23.125 -24.78125 C 23.257812 -25.050781 23.1875 -25.253906 22.90625 -25.390625 C 22.632812 -25.535156 22.15625 -25.429688 21.46875 -25.078125 C 17.6875 -23.015625 13.628906 -22.085938 9.296875 -22.296875 C 7.367188 -22.234375 5.472656 -22.613281 3.609375 -23.4375 C 2.921875 -23.226562 2.234375 -23.296875 1.546875 -23.640625 C 0.441406 -24.191406 -0.0351562 -25.085938 0.109375 -26.328125 C -0.921875 -27.566406 -1.644531 -28.976562 -2.0625 -30.5625 C -2.882812 -33.382812 -2.8125 -36.171875 -1.84375 -38.921875 C -0.882812 -41.671875 0.796875 -43.941406 3.203125 -45.734375 C 6.085938 -47.453125 8.359375 -47.519531 10.015625 -45.9375 C 10.222656 -45.726562 10.476562 -45.363281 10.78125 -44.84375 C 11.09375 -44.332031 11.28125 -43.523438 11.34375 -42.421875 C 11.414062 -41.328125 11.191406 -39.78125 10.671875 -37.78125 C 10.160156 -35.789062 9.1875 -33.175781 7.75 -29.9375 C 7.601562 -29.664062 7.703125 -29.21875 8.046875 -28.59375 C 8.390625 -27.976562 8.804688 -27.671875 9.296875 -27.671875 C 13.285156 -27.671875 17.035156 -28.664062 20.546875 -30.65625 C 21.710938 -31.28125 22.945312 -31.796875 24.25 -32.203125 C 25.5625 -32.617188 26.941406 -32.273438 28.390625 -31.171875 C 29.835938 -30.078125 30.316406 -28.71875 29.828125 -27.09375 C 29.347656 -25.476562 28.726562 -23.914062 27.96875 -22.40625 C 26.394531 -19.164062 25.570312 -16.632812 25.5 -14.8125 C 25.425781 -12.988281 26.5625 -11.390625 28.90625 -10.015625 C 30.207031 -9.253906 32.425781 -8.785156 35.5625 -8.609375 C 38.695312 -8.441406 42.34375 -8.6875 46.5 -9.34375 C 50.664062 -10 55.054688 -11.066406 59.671875 -12.546875 C 64.285156 -14.023438 68.789062 -15.96875 73.1875 -18.375 C 77.59375 -20.78125 81.585938 -23.738281 85.171875 -27.25 C 85.722656 -27.726562 86.375 -27.96875 87.125 -27.96875 C 87.882812 -27.96875 88.539062 -27.695312 89.09375 -27.15625 Z M 3 -32.828125 C 4.238281 -35.441406 5.203125 -38.160156 5.890625 -40.984375 C 3.335938 -38.785156 2.375 -36.066406 3 -32.828125 Z M 3 -32.828125 "/></g></g><g style="fill:#ffffff;fill-opacity:1;"><g transform="translate(577.41704, 408.249244)"><path style="stroke:none" d="M 71.03125 -26.53125 C 71.570312 -25.976562 71.84375 -25.320312 71.84375 -24.5625 C 71.84375 -23.8125 71.570312 -23.160156 71.03125 -22.609375 C 70.820312 -22.398438 69.804688 -21.46875 67.984375 -19.8125 C 66.160156 -18.164062 63.765625 -16.207031 60.796875 -13.9375 C 57.835938 -11.664062 54.46875 -9.394531 50.6875 -7.125 C 46.90625 -4.851562 42.929688 -2.957031 38.765625 -1.4375 C 34.597656 0.0703125 30.414062 0.828125 26.21875 0.828125 C 23.675781 0.828125 21.195312 0.484375 18.78125 -0.203125 C 14.3125 -1.515625 10.578125 -4.21875 7.578125 -8.3125 C 4.585938 -12.40625 2.40625 -17.6875 1.03125 -24.15625 C 0.894531 -24.5 0.828125 -24.84375 0.828125 -25.1875 C 0.203125 -28.5625 -0.207031 -31.96875 -0.40625 -35.40625 C -0.613281 -39.882812 -0.53125 -44.566406 -0.15625 -49.453125 C 0.21875 -54.335938 0.851562 -59.132812 1.75 -63.84375 C 2.644531 -68.5625 3.796875 -72.929688 5.203125 -76.953125 C 6.617188 -80.984375 8.203125 -84.375 9.953125 -87.125 C 11.710938 -89.882812 13.660156 -91.742188 15.796875 -92.703125 C 17.242188 -93.328125 18.757812 -93.429688 20.34375 -93.015625 C 21.925781 -92.597656 23.195312 -91.769531 24.15625 -90.53125 C 25.664062 -88.945312 26.472656 -86.660156 26.578125 -83.671875 C 26.679688 -80.679688 26.320312 -77.257812 25.5 -73.40625 C 24.675781 -69.550781 23.539062 -65.488281 22.09375 -61.21875 C 20.644531 -56.945312 19.0625 -52.742188 17.34375 -48.609375 C 15.625 -44.484375 13.9375 -40.628906 12.28125 -37.046875 C 10.632812 -33.472656 9.222656 -30.484375 8.046875 -28.078125 C 6.953125 -25.804688 6.75 -23.5 7.4375 -21.15625 C 8.46875 -17.582031 10 -14.332031 12.03125 -11.40625 C 14.0625 -8.476562 16.832031 -6.46875 20.34375 -5.375 C 23.570312 -4.40625 26.957031 -4.226562 30.5 -4.84375 C 34.050781 -5.46875 37.5625 -6.585938 41.03125 -8.203125 C 44.507812 -9.828125 47.8125 -11.648438 50.9375 -13.671875 C 54.070312 -15.703125 56.84375 -17.679688 59.25 -19.609375 C 61.664062 -21.535156 63.578125 -23.148438 64.984375 -24.453125 C 66.398438 -25.765625 67.140625 -26.457031 67.203125 -26.53125 C 67.753906 -27.007812 68.410156 -27.25 69.171875 -27.25 C 69.859375 -27.25 70.476562 -27.007812 71.03125 -26.53125 Z M 5.375 -36.953125 C 5.4375 -36.472656 5.671875 -36.144531 6.078125 -35.96875 C 6.492188 -35.800781 6.84375 -35.925781 7.125 -36.34375 C 8.019531 -37.78125 9.050781 -39.910156 10.21875 -42.734375 C 11.382812 -45.554688 12.585938 -48.753906 13.828125 -52.328125 C 15.066406 -55.910156 16.203125 -59.5625 17.234375 -63.28125 C 18.265625 -67 19.125 -70.507812 19.8125 -73.8125 C 20.507812 -77.113281 20.925781 -79.929688 21.0625 -82.265625 C 21.195312 -84.609375 20.921875 -86.125 20.234375 -86.8125 C 19.617188 -87.507812 19.035156 -87.859375 18.484375 -87.859375 C 18.273438 -87.859375 18.066406 -87.820312 17.859375 -87.75 C 16.828125 -87.269531 15.640625 -85.789062 14.296875 -83.3125 C 12.953125 -80.832031 11.625 -77.695312 10.3125 -73.90625 C 9.007812 -70.125 7.859375 -66.03125 6.859375 -61.625 C 5.867188 -57.226562 5.195312 -52.878906 4.84375 -48.578125 C 4.5 -44.273438 4.675781 -40.398438 5.375 -36.953125 Z M 5.375 -36.953125 "/></g></g><g style="fill:#ffffff;fill-opacity:1;"><g transform="translate(648.750609, 408.249244)"><path style="stroke:none" d="M 81.65625 -28.5 C 82.207031 -27.945312 82.484375 -27.289062 82.484375 -26.53125 C 82.484375 -25.769531 82.242188 -25.148438 81.765625 -24.671875 C 78.734375 -21.785156 75.289062 -19.648438 71.4375 -18.265625 C 67.582031 -16.890625 63.609375 -16.335938 59.515625 -16.609375 C 55.421875 -16.890625 51.515625 -17.992188 47.796875 -19.921875 C 46.628906 -20.546875 45.40625 -20.753906 44.125 -20.546875 C 42.851562 -20.335938 41.738281 -19.785156 40.78125 -18.890625 C 37.539062 -15.585938 34.304688 -11.90625 31.078125 -7.84375 C 30.734375 -7.5 30.523438 -7.085938 30.453125 -6.609375 C 29.765625 -2.335938 28.882812 2.015625 27.8125 6.453125 C 26.75 10.890625 25.5625 15.238281 24.25 19.5 C 22.945312 23.769531 21.570312 27.691406 20.125 31.265625 C 18.6875 34.847656 17.226562 37.878906 15.75 40.359375 C 14.269531 42.835938 12.835938 44.523438 11.453125 45.421875 C 10.492188 46.109375 9.460938 46.453125 8.359375 46.453125 C 6.910156 46.453125 5.707031 45.9375 4.75 44.90625 C 2.476562 42.5 1.476562 39.644531 1.75 36.34375 C 1.820312 33.445312 2.507812 30.175781 3.8125 26.53125 C 5.125 22.882812 6.863281 19.046875 9.03125 15.015625 C 11.195312 10.992188 13.65625 6.914062 16.40625 2.78125 C 19.164062 -1.34375 22.054688 -5.296875 25.078125 -9.078125 C 25.359375 -9.492188 25.535156 -9.941406 25.609375 -10.421875 C 26.015625 -12.421875 26.253906 -14.421875 26.328125 -16.421875 C 24.671875 -13.109375 22.394531 -10.265625 19.5 -7.890625 C 16.613281 -5.515625 13.347656 -3.8125 9.703125 -2.78125 C 8.117188 -2.300781 6.519531 -2.285156 4.90625 -2.734375 C 3.289062 -3.179688 1.929688 -4.023438 0.828125 -5.265625 C -0.0664062 -6.222656 -0.769531 -7.664062 -1.28125 -9.59375 C -1.800781 -11.519531 -1.851562 -14.050781 -1.4375 -17.1875 C -1.03125 -20.320312 0.101562 -24.265625 1.96875 -29.015625 C 2.238281 -29.703125 2.734375 -30.195312 3.453125 -30.5 C 4.179688 -30.8125 4.890625 -30.832031 5.578125 -30.5625 C 6.265625 -30.28125 6.742188 -29.796875 7.015625 -29.109375 C 7.296875 -28.421875 7.296875 -27.734375 7.015625 -27.046875 C 5.222656 -22.640625 4.171875 -19.160156 3.859375 -16.609375 C 3.554688 -14.066406 3.578125 -12.210938 3.921875 -11.046875 C 4.265625 -9.878906 4.578125 -9.125 4.859375 -8.78125 C 5.890625 -7.8125 7.054688 -7.566406 8.359375 -8.046875 C 11.179688 -8.804688 13.585938 -10.03125 15.578125 -11.71875 C 17.578125 -13.40625 19.226562 -15.28125 20.53125 -17.34375 C 21.84375 -19.40625 22.878906 -21.398438 23.640625 -23.328125 C 24.398438 -25.253906 24.929688 -26.867188 25.234375 -28.171875 C 25.546875 -29.484375 25.703125 -30.140625 25.703125 -30.140625 C 25.984375 -31.515625 26.773438 -32.273438 28.078125 -32.421875 C 29.453125 -32.554688 30.414062 -31.96875 30.96875 -30.65625 C 31.65625 -28.59375 32 -26.492188 32 -24.359375 C 32.070312 -23.117188 32.691406 -22.296875 33.859375 -21.890625 C 34.960938 -21.398438 35.960938 -21.601562 36.859375 -22.5 C 38.640625 -24.363281 40.394531 -26.085938 42.125 -27.671875 C 43.21875 -28.628906 44.351562 -28.660156 45.53125 -27.765625 C 49.175781 -25.085938 52.613281 -23.367188 55.84375 -22.609375 C 59.082031 -21.847656 62.007812 -21.65625 64.625 -22.03125 C 67.238281 -22.414062 69.523438 -23.109375 71.484375 -24.109375 C 73.453125 -25.109375 74.984375 -26.050781 76.078125 -26.9375 C 77.179688 -27.832031 77.769531 -28.316406 77.84375 -28.390625 C 78.394531 -28.941406 79.046875 -29.21875 79.796875 -29.21875 C 80.554688 -29.21875 81.175781 -28.976562 81.65625 -28.5 Z M 22.71875 4.75 C 22.851562 4.332031 22.800781 4.085938 22.5625 4.015625 C 22.320312 3.953125 22.097656 4.09375 21.890625 4.4375 C 19.128906 8.5 16.648438 12.507812 14.453125 16.46875 C 12.253906 20.425781 10.515625 24.125 9.234375 27.5625 C 7.960938 31 7.289062 33.957031 7.21875 36.4375 C 7.21875 37.46875 7.304688 38.445312 7.484375 39.375 C 7.660156 40.3125 7.988281 40.847656 8.46875 40.984375 C 8.945312 41.054688 9.515625 40.59375 10.171875 39.59375 C 10.828125 38.59375 11.738281 36.890625 12.90625 34.484375 C 17.238281 24.910156 20.507812 15 22.71875 4.75 Z M 22.71875 4.75 "/></g></g></g></svg>