<svg xmlns="http://www.w3.org/2000/svg" xmlns:xlink="http://www.w3.org/1999/xlink" width="1000" zoomAndPan="magnify" viewBox="0 0 750 749.999995" height="1000" preserveAspectRatio="xMidYMid meet" version="1.2"><defs><clipPath id="53807b3511"><path d="M 4.097656 2.050781 L 749.996094 2.050781 L 749.996094 747.949219 L 4.097656 747.949219 Z M 4.097656 2.050781 "/></clipPath><clipPath id="ad1aad7867"><path d="M 377.046875 2.050781 C 171.074219 2.050781 4.097656 169.023438 4.097656 375 C 4.097656 580.972656 171.074219 747.949219 377.046875 747.949219 C 583.023438 747.949219 749.996094 580.972656 749.996094 375 C 749.996094 169.023438 583.023438 2.050781 377.046875 2.050781 Z M 377.046875 2.050781 "/></clipPath></defs><g id="d663101d9b"><g clip-rule="nonzero" clip-path="url(#53807b3511)"><g clip-rule="nonzero" clip-path="url(#ad1aad7867)"><path style="fill:none;stroke-width:22;stroke-linecap:butt;stroke-linejoin:miter;stroke:#ffffff;stroke-opacity:1;stroke-miterlimit:4;" d="M 497.263343 0.0014261 C 222.633121 0.0014261 -0.0023064 222.631645 -0.0023064 497.267075 C -0.0023064 771.897297 222.633121 994.532725 497.263343 994.532725 C 771.898773 994.532725 994.528992 771.897297 994.528992 497.267075 C 994.528992 222.631645 771.898773 0.0014261 497.263343 0.0014261 Z M 497.263343 0.0014261 " transform="matrix(0.75,0,0,0.75,4.099386,2.049712)"/></g></g><g style="fill:#ffffff;fill-opacity:1;"><g transform="translate(108.549617, 250.191436)"><path style="stroke:none" d="M -6.28125 -23.734375 L -11.28125 -14.0625 L -7.640625 -12.1875 L -3.125 -20.90625 L 0.53125 -19 L -3.984375 -10.28125 L -0.296875 -8.375 L 4.859375 -18.328125 L 8.515625 -16.4375 L 0.953125 -1.828125 L -17.34375 -11.3125 L -9.9375 -25.640625 Z M -6.28125 -23.734375 "/></g></g><g style="fill:#ffffff;fill-opacity:1;"><g transform="translate(125.389091, 219.630729)"><path style="stroke:none" d="M -11.6875 -19.953125 C -9.96875 -22.492188 -7.816406 -24.300781 -5.234375 -25.375 L -2.953125 -21.453125 C -4.066406 -20.910156 -5.140625 -20.238281 -6.171875 -19.4375 C -7.203125 -18.644531 -7.957031 -17.898438 -8.4375 -17.203125 C -9.28125 -15.941406 -9.285156 -15.03125 -8.453125 -14.46875 C -7.910156 -14.101562 -7.265625 -14.125 -6.515625 -14.53125 C -5.773438 -14.9375 -4.984375 -15.5 -4.140625 -16.21875 C -3.304688 -16.945312 -2.425781 -17.640625 -1.5 -18.296875 C -0.582031 -18.953125 0.457031 -19.335938 1.625 -19.453125 C 2.789062 -19.566406 3.941406 -19.238281 5.078125 -18.46875 C 6.722656 -17.363281 7.570312 -15.859375 7.625 -13.953125 C 7.675781 -12.054688 7.03125 -10.113281 5.6875 -8.125 C 4.738281 -6.707031 3.550781 -5.472656 2.125 -4.421875 C 0.707031 -3.367188 -0.769531 -2.617188 -2.3125 -2.171875 L -4.515625 -6.09375 C -3.171875 -6.457031 -1.863281 -7.0625 -0.59375 -7.90625 C 0.664062 -8.757812 1.609375 -9.644531 2.234375 -10.5625 C 2.703125 -11.257812 2.9375 -11.882812 2.9375 -12.4375 C 2.945312 -12.988281 2.707031 -13.429688 2.21875 -13.765625 C 1.75 -14.085938 1.207031 -14.132812 0.59375 -13.90625 C -0.0195312 -13.675781 -0.628906 -13.273438 -1.234375 -12.703125 C -1.847656 -12.140625 -2.546875 -11.550781 -3.328125 -10.9375 C -4.109375 -10.332031 -4.878906 -9.804688 -5.640625 -9.359375 C -6.410156 -8.910156 -7.28125 -8.6875 -8.25 -8.6875 C -9.226562 -8.695312 -10.191406 -9.019531 -11.140625 -9.65625 C -12.703125 -10.707031 -13.53125 -12.171875 -13.625 -14.046875 C -13.726562 -15.921875 -13.082031 -17.890625 -11.6875 -19.953125 Z M -11.6875 -19.953125 "/></g></g><g style="fill:#ffffff;fill-opacity:1;"><g transform="translate(145.116138, 191.932004)"><path style="stroke:none" d="M -14.28125 -15 L -8.421875 -21.8125 C -6.710938 -23.800781 -4.910156 -24.941406 -3.015625 -25.234375 C -1.128906 -25.523438 0.6875 -24.921875 2.4375 -23.421875 C 4.269531 -21.847656 5.21875 -20.070312 5.28125 -18.09375 C 5.34375 -16.125 4.519531 -14.144531 2.8125 -12.15625 L 0.359375 -9.3125 L 4.75 -5.53125 L 1.34375 -1.5625 Z M -7.75 -16.28125 L -2.765625 -12 L -0.484375 -14.640625 C 0.265625 -15.515625 0.628906 -16.375 0.609375 -17.21875 C 0.585938 -18.0625 0.164062 -18.835938 -0.65625 -19.546875 C -1.457031 -20.234375 -2.269531 -20.519531 -3.09375 -20.40625 C -3.925781 -20.289062 -4.71875 -19.796875 -5.46875 -18.921875 Z M -7.75 -16.28125 "/></g></g><g style="fill:#ffffff;fill-opacity:1;"><g transform="translate(168.63638, 165.946951)"><path style="stroke:none" d="M 2.234375 -24.4375 L -5.78125 -17.078125 L -3 -14.0625 L 4.234375 -20.703125 L 7.015625 -17.671875 L -0.21875 -11.03125 L 2.578125 -7.96875 L 10.84375 -15.546875 L 13.640625 -12.515625 L 1.515625 -1.390625 L -12.421875 -16.578125 L -0.546875 -27.484375 Z M 2.234375 -24.4375 "/></g></g><g style="fill:#ffffff;fill-opacity:1;"><g transform="translate(194.900066, 143.013726)"><path style="stroke:none" d="M -2.65625 -23.71875 C -1.40625 -24.601562 0 -25.226562 1.5625 -25.59375 C 3.132812 -25.957031 4.648438 -26.007812 6.109375 -25.75 L 5.765625 -21.0625 C 4.734375 -21.332031 3.703125 -21.390625 2.671875 -21.234375 C 1.640625 -21.078125 0.742188 -20.726562 -0.015625 -20.1875 C -1.328125 -19.238281 -2.09375 -17.976562 -2.3125 -16.40625 C -2.539062 -14.84375 -2.160156 -13.375 -1.171875 -12 C -0.160156 -10.59375 1.125 -9.738281 2.6875 -9.4375 C 4.257812 -9.144531 5.703125 -9.472656 7.015625 -10.421875 C 7.722656 -10.929688 8.328125 -11.632812 8.828125 -12.53125 C 9.328125 -13.4375 9.660156 -14.398438 9.828125 -15.421875 L 14.203125 -14.578125 C 13.960938 -13.015625 13.425781 -11.507812 12.59375 -10.0625 C 11.757812 -8.613281 10.734375 -7.445312 9.515625 -6.5625 C 6.992188 -4.75 4.304688 -4.054688 1.453125 -4.484375 C -1.398438 -4.921875 -3.710938 -6.363281 -5.484375 -8.8125 C -7.210938 -11.21875 -7.8125 -13.84375 -7.28125 -16.6875 C -6.75 -19.53125 -5.207031 -21.875 -2.65625 -23.71875 Z M -2.65625 -23.71875 "/></g></g><g style="fill:#ffffff;fill-opacity:1;"><g transform="translate(224.365456, 123.067513)"><path style="stroke:none" d="M 6.328125 -3.640625 L 1.78125 -1.03125 L -8.515625 -18.890625 L -3.96875 -21.5 Z M 6.328125 -3.640625 "/></g></g><g style="fill:#ffffff;fill-opacity:1;"><g transform="translate(245.851625, 111.192673)"><path style="stroke:none" d="M 12.84375 -9.859375 L 4.609375 -6.203125 L 4.78125 -2.125 L -0.125 0.0625 L -0.375 -22.375 L 4.53125 -24.5625 L 20.84375 -9.265625 L 15.734375 -7 Z M 9.84375 -12.875 L 4.0625 -18.640625 L 4.390625 -10.453125 Z M 9.84375 -12.875 "/></g></g><g style="fill:#ffffff;fill-opacity:1;"><g transform="translate(280.722795, 96.851508)"><path style="stroke:none" d="M 5.671875 -6.359375 L 14.03125 -8.953125 L 15.328125 -4.765625 L 1.96875 -0.609375 L -4.15625 -20.28125 L 0.84375 -21.84375 Z M 5.671875 -6.359375 "/></g></g><g style="fill:#ffffff;fill-opacity:1;"><g transform="translate(311.314319, 88.27231)"><path style="stroke:none" d="M 7.140625 -1.5 L 2.015625 -0.421875 L -2.21875 -20.59375 L 2.90625 -21.671875 Z M 7.140625 -1.5 "/></g></g><g style="fill:#ffffff;fill-opacity:1;"><g transform="translate(335.505767, 83.731355)"><path style="stroke:none" d="M 7.6875 -21.796875 C 10.75 -22.117188 13.523438 -21.644531 16.015625 -20.375 L 14.484375 -16.109375 C 13.347656 -16.609375 12.140625 -16.992188 10.859375 -17.265625 C 9.585938 -17.535156 8.53125 -17.625 7.6875 -17.53125 C 6.1875 -17.375 5.488281 -16.789062 5.59375 -15.78125 C 5.664062 -15.144531 6.09375 -14.671875 6.875 -14.359375 C 7.664062 -14.046875 8.609375 -13.804688 9.703125 -13.640625 C 10.796875 -13.472656 11.894531 -13.242188 13 -12.953125 C 14.101562 -12.671875 15.070312 -12.125 15.90625 -11.3125 C 16.75 -10.5 17.242188 -9.410156 17.390625 -8.046875 C 17.597656 -6.078125 16.992188 -4.457031 15.578125 -3.1875 C 14.160156 -1.914062 12.257812 -1.148438 9.875 -0.890625 C 8.175781 -0.710938 6.46875 -0.820312 4.75 -1.21875 C 3.03125 -1.625 1.503906 -2.269531 0.171875 -3.15625 L 1.75 -7.375 C 2.875 -6.59375 4.171875 -5.988281 5.640625 -5.5625 C 7.109375 -5.132812 8.390625 -4.984375 9.484375 -5.109375 C 10.328125 -5.191406 10.960938 -5.410156 11.390625 -5.765625 C 11.828125 -6.117188 12.015625 -6.59375 11.953125 -7.1875 C 11.890625 -7.757812 11.570312 -8.203125 11 -8.515625 C 10.425781 -8.835938 9.726562 -9.046875 8.90625 -9.140625 C 8.082031 -9.242188 7.1875 -9.398438 6.21875 -9.609375 C 5.25 -9.828125 4.34375 -10.078125 3.5 -10.359375 C 2.664062 -10.640625 1.929688 -11.15625 1.296875 -11.90625 C 0.671875 -12.65625 0.300781 -13.597656 0.1875 -14.734375 C -0.0195312 -16.609375 0.5625 -18.1875 1.9375 -19.46875 C 3.3125 -20.75 5.226562 -21.523438 7.6875 -21.796875 Z M 7.6875 -21.796875 "/></g></g><g style="fill:#ffffff;fill-opacity:1;"><g transform="translate(369.434253, 80.952739)"><path style="stroke:none" d="M 17.90625 -16.296875 L 11.6875 -16.328125 L 11.59375 0.0625 L 6.359375 0.03125 L 6.453125 -16.359375 L 0.296875 -16.390625 L 0.3125 -20.640625 L 17.921875 -20.546875 Z M 17.90625 -16.296875 "/></g></g><g style="fill:#ffffff;fill-opacity:1;"><g transform="translate(402.430161, 81.886671)"><path style="stroke:none" d="M 16.09375 -1.8125 L 7.15625 -2.9375 L 5.1875 0.65625 L -0.140625 -0.015625 L 11.25 -19.359375 L 16.578125 -18.703125 L 22.640625 2.828125 L 17.078125 2.140625 Z M 15.078125 -5.9375 L 13.09375 -13.859375 L 9.171875 -6.671875 Z M 15.078125 -5.9375 "/></g></g><g style="fill:#ffffff;fill-opacity:1;"><g transform="translate(439.852711, 87.744725)"><path style="stroke:none" d=""/></g></g><g style="fill:#ffffff;fill-opacity:1;"><g transform="translate(461.310405, 93.097055)"><path style="stroke:none" d="M 22.46875 -9.890625 L 12.140625 -13.328125 L 10.84375 -9.4375 L 20.171875 -6.328125 L 18.859375 -2.421875 L 9.53125 -5.53125 L 8.21875 -1.59375 L 18.859375 1.953125 L 17.5625 5.859375 L 1.953125 0.65625 L 8.46875 -18.890625 L 23.765625 -13.796875 Z M 22.46875 -9.890625 "/></g></g><g style="fill:#ffffff;fill-opacity:1;"><g transform="translate(494.075465, 104.881351)"><path style="stroke:none" d="M 19.03125 9.0625 L 14.859375 7.078125 L 11.765625 -8.453125 L 6.3125 3 L 1.859375 0.890625 L 10.71875 -17.71875 L 14.890625 -15.734375 L 18 -0.171875 L 23.46875 -11.65625 L 27.890625 -9.546875 Z M 19.03125 9.0625 "/></g></g><g style="fill:#ffffff;fill-opacity:1;"><g transform="translate(528.162117, 122.433205)"><path style="stroke:none" d=""/></g></g><g style="fill:#ffffff;fill-opacity:1;"><g transform="translate(546.829218, 134.243715)"><path style="stroke:none" d="M 11.578125 8.703125 L 12.609375 2.234375 L 12.5 2.15625 L 9.3125 -0.234375 L 5.828125 4.390625 L 1.640625 1.234375 L 14.03125 -15.234375 L 21.40625 -9.6875 C 23.582031 -8.050781 24.890625 -6.285156 25.328125 -4.390625 C 25.773438 -2.503906 25.304688 -0.640625 23.921875 1.203125 C 22.015625 3.734375 19.695312 4.75 16.96875 4.25 L 16.3125 12.28125 Z M 11.796875 -3.53125 L 14.984375 -1.140625 C 15.890625 -0.453125 16.757812 -0.148438 17.59375 -0.234375 C 18.4375 -0.316406 19.1875 -0.789062 19.84375 -1.65625 C 20.476562 -2.5 20.707031 -3.328125 20.53125 -4.140625 C 20.363281 -4.953125 19.828125 -5.703125 18.921875 -6.390625 L 15.734375 -8.78125 Z M 11.796875 -3.53125 "/></g></g><g style="fill:#ffffff;fill-opacity:1;"><g transform="translate(575.333898, 157.049052)"><path style="stroke:none" d="M 5.34375 4.96875 L 1.515625 1.40625 L 15.53125 -13.703125 L 19.359375 -10.140625 Z M 5.34375 4.96875 "/></g></g><g style="fill:#ffffff;fill-opacity:1;"><g transform="translate(593.024696, 174.13941)"><path style="stroke:none" d="M 25.390625 2.734375 L 8.296875 3.125 L 15.703125 11.515625 L 12.578125 14.265625 L 0.546875 0.625 L 3.0625 -1.59375 L 20.1875 -1.984375 L 13.140625 -9.96875 L 16.25 -12.71875 L 27.90625 0.515625 Z M 25.390625 2.734375 "/></g></g><g style="fill:#ffffff;fill-opacity:1;"><g transform="translate(615.45181, 200.798952)"><path style="stroke:none" d="M 23.84375 -1.953125 C 25.644531 0.691406 26.316406 3.453125 25.859375 6.328125 C 25.410156 9.203125 23.953125 11.476562 21.484375 13.15625 C 19.003906 14.851562 16.332031 15.390625 13.46875 14.765625 C 10.601562 14.148438 8.273438 12.523438 6.484375 9.890625 C 4.691406 7.265625 4.023438 4.507812 4.484375 1.625 C 4.941406 -1.25 6.421875 -3.539062 8.921875 -5.25 C 11.410156 -6.9375 14.070312 -7.460938 16.90625 -6.828125 C 19.738281 -6.203125 22.050781 -4.578125 23.84375 -1.953125 Z M 20.234375 0.59375 C 19.328125 -0.738281 18.070312 -1.546875 16.46875 -1.828125 C 14.863281 -2.117188 13.347656 -1.773438 11.921875 -0.796875 C 10.503906 0.171875 9.628906 1.460938 9.296875 3.078125 C 8.960938 4.703125 9.242188 6.171875 10.140625 7.484375 C 11.035156 8.796875 12.285156 9.578125 13.890625 9.828125 C 15.492188 10.078125 17.003906 9.710938 18.421875 8.734375 C 19.847656 7.765625 20.726562 6.492188 21.0625 4.921875 C 21.40625 3.347656 21.128906 1.90625 20.234375 0.59375 Z M 20.234375 0.59375 "/></g></g><g style="fill:#ffffff;fill-opacity:1;"><g transform="translate(636.363062, 233.331214)"><path style="stroke:none" d="M 23.09375 -0.6875 C 24.5 2.039062 25.066406 4.800781 24.796875 7.59375 L 20.234375 7.703125 C 20.296875 6.453125 20.222656 5.179688 20.015625 3.890625 C 19.816406 2.609375 19.523438 1.59375 19.140625 0.84375 C 18.441406 -0.5 17.640625 -0.9375 16.734375 -0.46875 C 16.160156 -0.175781 15.875 0.390625 15.875 1.234375 C 15.875 2.085938 15.988281 3.050781 16.21875 4.125 C 16.457031 5.207031 16.640625 6.3125 16.765625 7.4375 C 16.898438 8.570312 16.738281 9.679688 16.28125 10.765625 C 15.832031 11.847656 14.992188 12.703125 13.765625 13.328125 C 12.003906 14.234375 10.273438 14.253906 8.578125 13.390625 C 6.890625 12.523438 5.492188 11.023438 4.390625 8.890625 C 3.609375 7.378906 3.097656 5.742188 2.859375 3.984375 C 2.617188 2.234375 2.671875 0.570312 3.015625 -1 L 7.515625 -1.03125 C 7.191406 0.3125 7.09375 1.742188 7.21875 3.265625 C 7.351562 4.785156 7.675781 6.035156 8.1875 7.015625 C 8.570312 7.765625 9.007812 8.273438 9.5 8.546875 C 9.988281 8.828125 10.492188 8.832031 11.015625 8.5625 C 11.523438 8.300781 11.820312 7.84375 11.90625 7.1875 C 12 6.53125 11.941406 5.800781 11.734375 5 C 11.535156 4.195312 11.359375 3.304688 11.203125 2.328125 C 11.046875 1.347656 10.953125 0.414062 10.921875 -0.46875 C 10.890625 -1.351562 11.109375 -2.222656 11.578125 -3.078125 C 12.054688 -3.929688 12.800781 -4.617188 13.8125 -5.140625 C 15.488281 -6.003906 17.171875 -6.03125 18.859375 -5.21875 C 20.546875 -4.40625 21.957031 -2.894531 23.09375 -0.6875 Z M 23.09375 -0.6875 "/></g></g><g style="fill:#ffffff;fill-opacity:1;"><g transform="translate(87.967556, 512.60427)"><path style="stroke:none" d="M 23 8.578125 L 18 -1.09375 L 14.359375 0.78125 L 18.875 9.5 L 15.21875 11.40625 L 10.703125 2.6875 L 7.015625 4.59375 L 12.171875 14.546875 L 8.515625 16.4375 L 0.953125 1.828125 L 19.25 -7.65625 L 26.65625 6.671875 Z M 23 8.578125 "/></g></g><g style="fill:#ffffff;fill-opacity:1;"><g transform="translate(106.17941, 545.475619)"><path style="stroke:none" d="M 22.875 -3.390625 C 24.59375 -0.847656 25.472656 1.820312 25.515625 4.625 L 21.015625 5.265625 C 20.921875 4.035156 20.695312 2.789062 20.34375 1.53125 C 19.988281 0.28125 19.570312 -0.691406 19.09375 -1.390625 C 18.25 -2.648438 17.410156 -3 16.578125 -2.4375 C 16.035156 -2.070312 15.8125 -1.46875 15.90625 -0.625 C 16.007812 0.21875 16.238281 1.160156 16.59375 2.203125 C 16.957031 3.253906 17.269531 4.332031 17.53125 5.4375 C 17.800781 6.539062 17.769531 7.65625 17.4375 8.78125 C 17.101562 9.90625 16.367188 10.851562 15.234375 11.625 C 13.585938 12.726562 11.875 12.945312 10.09375 12.28125 C 8.3125 11.625 6.75 10.300781 5.40625 8.3125 C 4.457031 6.894531 3.757812 5.332031 3.3125 3.625 C 2.875 1.914062 2.726562 0.265625 2.875 -1.328125 L 7.359375 -1.90625 C 7.179688 -0.539062 7.242188 0.882812 7.546875 2.375 C 7.859375 3.875 8.328125 5.082031 8.953125 6 C 9.421875 6.695312 9.910156 7.15625 10.421875 7.375 C 10.941406 7.59375 11.445312 7.535156 11.9375 7.203125 C 12.40625 6.878906 12.648438 6.390625 12.671875 5.734375 C 12.691406 5.078125 12.550781 4.359375 12.25 3.578125 C 11.957031 2.804688 11.675781 1.941406 11.40625 0.984375 C 11.132812 0.0351562 10.925781 -0.875 10.78125 -1.75 C 10.644531 -2.625 10.757812 -3.507812 11.125 -4.40625 C 11.5 -5.3125 12.160156 -6.082031 13.109375 -6.71875 C 14.671875 -7.769531 16.335938 -7.992188 18.109375 -7.390625 C 19.890625 -6.785156 21.476562 -5.453125 22.875 -3.390625 Z M 22.875 -3.390625 "/></g></g><g style="fill:#ffffff;fill-opacity:1;"><g transform="translate(127.541388, 575.315557)"><path style="stroke:none" d="M 16.96875 -11.875 L 22.828125 -5.0625 C 24.535156 -3.070312 25.390625 -1.117188 25.390625 0.796875 C 25.398438 2.710938 24.53125 4.421875 22.78125 5.921875 C 20.945312 7.492188 19.050781 8.160156 17.09375 7.921875 C 15.132812 7.691406 13.300781 6.582031 11.59375 4.59375 L 9.140625 1.75 L 4.75 5.53125 L 1.34375 1.5625 Z M 17.25 -5.21875 L 12.265625 -0.9375 L 14.546875 1.703125 C 15.296875 2.578125 16.09375 3.066406 16.9375 3.171875 C 17.78125 3.273438 18.613281 2.972656 19.4375 2.265625 C 20.238281 1.578125 20.640625 0.816406 20.640625 -0.015625 C 20.648438 -0.847656 20.28125 -1.703125 19.53125 -2.578125 Z M 17.25 -5.21875 "/></g></g><g style="fill:#ffffff;fill-opacity:1;"><g transform="translate(152.958394, 603.260189)"><path style="stroke:none" d="M 24.546875 0.15625 L 16.53125 -7.203125 L 13.75 -4.1875 L 20.984375 2.453125 L 18.203125 5.484375 L 10.96875 -1.15625 L 8.171875 1.90625 L 16.4375 9.484375 L 13.640625 12.515625 L 1.515625 1.390625 L 15.453125 -13.796875 L 27.328125 -2.890625 Z M 24.546875 0.15625 "/></g></g><g style="fill:#ffffff;fill-opacity:1;"><g transform="translate(181.346606, 627.924381)"><path style="stroke:none" d="M 21.65625 -10 C 22.90625 -9.113281 23.941406 -7.984375 24.765625 -6.609375 C 25.597656 -5.234375 26.128906 -3.8125 26.359375 -2.34375 L 21.796875 -1.1875 C 21.742188 -2.25 21.476562 -3.25 21 -4.1875 C 20.519531 -5.125 19.898438 -5.863281 19.140625 -6.40625 C 17.828125 -7.351562 16.390625 -7.679688 14.828125 -7.390625 C 13.273438 -7.109375 12.003906 -6.28125 11.015625 -4.90625 C 10.003906 -3.5 9.601562 -2.003906 9.8125 -0.421875 C 10.03125 1.148438 10.796875 2.410156 12.109375 3.359375 C 12.816406 3.867188 13.675781 4.21875 14.6875 4.40625 C 15.695312 4.601562 16.710938 4.617188 17.734375 4.453125 L 18.328125 8.859375 C 16.753906 9.128906 15.148438 9.097656 13.515625 8.765625 C 11.878906 8.429688 10.453125 7.820312 9.234375 6.9375 C 6.710938 5.125 5.207031 2.796875 4.71875 -0.046875 C 4.226562 -2.898438 4.867188 -5.550781 6.640625 -8 C 8.367188 -10.40625 10.664062 -11.800781 13.53125 -12.1875 C 16.394531 -12.570312 19.101562 -11.84375 21.65625 -10 Z M 21.65625 -10 "/></g></g><g style="fill:#ffffff;fill-opacity:1;"><g transform="translate(212.783366, 649.144973)"><path style="stroke:none" d="M 6.328125 3.640625 L 1.78125 1.03125 L 12.078125 -16.828125 L 16.625 -14.21875 Z M 6.328125 3.640625 "/></g></g><g style="fill:#ffffff;fill-opacity:1;"><g transform="translate(236.43842, 662.123418)"><path style="stroke:none" d="M 15.9375 2.921875 L 7.703125 -0.734375 L 4.78125 2.125 L -0.125 -0.0625 L 16.375 -15.28125 L 21.28125 -13.09375 L 20.84375 9.265625 L 15.734375 7 Z M 16.15625 -1.3125 L 16.5625 -9.484375 L 10.703125 -3.734375 Z M 16.15625 -1.3125 "/></g></g><g style="fill:#ffffff;fill-opacity:1;"><g transform="translate(273.837261, 677.415703)"><path style="stroke:none" d="M 8.265625 -2.015625 L 16.625 0.578125 L 15.328125 4.765625 L 1.96875 0.609375 L 8.09375 -19.0625 L 13.09375 -17.5 Z M 8.265625 -2.015625 "/></g></g><g style="fill:#ffffff;fill-opacity:1;"><g transform="translate(306.559709, 686.548324)"><path style="stroke:none" d="M 7.140625 1.5 L 2.015625 0.421875 L 6.25 -19.75 L 11.375 -18.671875 Z M 7.140625 1.5 "/></g></g><g style="fill:#ffffff;fill-opacity:1;"><g transform="translate(333.017312, 691.448185)"><path style="stroke:none" d="M 12.15625 -19.640625 C 15.21875 -19.316406 17.828125 -18.269531 19.984375 -16.5 L 17.578125 -12.640625 C 16.585938 -13.367188 15.492188 -14.003906 14.296875 -14.546875 C 13.109375 -15.085938 12.09375 -15.40625 11.25 -15.5 C 9.75 -15.65625 8.945312 -15.226562 8.84375 -14.21875 C 8.769531 -13.582031 9.082031 -13.03125 9.78125 -12.5625 C 10.488281 -12.09375 11.359375 -11.660156 12.390625 -11.265625 C 13.421875 -10.867188 14.445312 -10.410156 15.46875 -9.890625 C 16.488281 -9.378906 17.316406 -8.632812 17.953125 -7.65625 C 18.597656 -6.675781 18.847656 -5.503906 18.703125 -4.140625 C 18.492188 -2.171875 17.5625 -0.71875 15.90625 0.21875 C 14.25 1.15625 12.226562 1.492188 9.84375 1.234375 C 8.144531 1.054688 6.5 0.585938 4.90625 -0.171875 C 3.3125 -0.941406 1.953125 -1.90625 0.828125 -3.0625 L 3.28125 -6.84375 C 4.21875 -5.832031 5.359375 -4.960938 6.703125 -4.234375 C 8.046875 -3.503906 9.265625 -3.078125 10.359375 -2.953125 C 11.203125 -2.867188 11.867188 -2.953125 12.359375 -3.203125 C 12.859375 -3.453125 13.140625 -3.875 13.203125 -4.46875 C 13.265625 -5.039062 13.050781 -5.539062 12.5625 -5.96875 C 12.070312 -6.40625 11.4375 -6.757812 10.65625 -7.03125 C 9.875 -7.3125 9.03125 -7.65625 8.125 -8.0625 C 7.21875 -8.476562 6.382812 -8.914062 5.625 -9.375 C 4.875 -9.832031 4.269531 -10.492188 3.8125 -11.359375 C 3.363281 -12.222656 3.195312 -13.222656 3.3125 -14.359375 C 3.519531 -16.234375 4.429688 -17.648438 6.046875 -18.609375 C 7.660156 -19.566406 9.695312 -19.910156 12.15625 -19.640625 Z M 12.15625 -19.640625 "/></g></g><g style="fill:#ffffff;fill-opacity:1;"><g transform="translate(369.560317, 694.360401)"><path style="stroke:none" d="M 17.71875 -16.484375 L 11.5 -16.453125 L 11.59375 -0.0625 L 6.359375 -0.03125 L 6.265625 -16.421875 L 0.109375 -16.390625 L 0.09375 -20.640625 L 17.703125 -20.734375 Z M 17.71875 -16.484375 "/></g></g><g style="fill:#ffffff;fill-opacity:1;"><g transform="translate(405.307356, 693.247562)"><path style="stroke:none" d="M 15.15625 -5.71875 L 6.21875 -4.59375 L 5.1875 -0.65625 L -0.140625 0.015625 L 6.125 -21.546875 L 11.453125 -22.203125 L 22.640625 -2.828125 L 17.078125 -2.140625 Z M 13.140625 -9.46875 L 9.28125 -16.671875 L 7.234375 -8.734375 Z M 13.140625 -9.46875 "/></g></g><g style="fill:#ffffff;fill-opacity:1;"><g transform="translate(445.032747, 686.982519)"><path style="stroke:none" d=""/></g></g><g style="fill:#ffffff;fill-opacity:1;"><g transform="translate(468.640043, 681.027112)"><path style="stroke:none" d="M 12.03125 -21.390625 L 1.703125 -17.953125 L 3 -14.0625 L 12.328125 -17.171875 L 13.640625 -13.265625 L 4.3125 -10.15625 L 5.625 -6.21875 L 16.265625 -9.765625 L 17.5625 -5.859375 L 1.953125 -0.65625 L -4.5625 -20.203125 L 10.734375 -25.296875 Z M 12.03125 -21.390625 "/></g></g><g style="fill:#ffffff;fill-opacity:1;"><g transform="translate(504.043092, 668.179528)"><path style="stroke:none" d="M 19.03125 -9.0625 L 14.859375 -7.078125 L 0.859375 -14.453125 L 6.3125 -3 L 1.859375 -0.890625 L -7 -19.5 L -2.828125 -21.484375 L 11.21875 -14.078125 L 5.75 -25.5625 L 10.171875 -27.671875 Z M 19.03125 -9.0625 "/></g></g><g style="fill:#ffffff;fill-opacity:1;"><g transform="translate(540.202708, 649.507694)"><path style="stroke:none" d=""/></g></g><g style="fill:#ffffff;fill-opacity:1;"><g transform="translate(560.763702, 636.413796)"><path style="stroke:none" d="M 11.578125 -8.703125 L 5.640625 -11.484375 L 5.53125 -11.40625 L 2.34375 -9.015625 L 5.828125 -4.390625 L 1.640625 -1.234375 L -10.75 -17.703125 L -3.375 -23.25 C -1.195312 -24.882812 0.859375 -25.648438 2.796875 -25.546875 C 4.742188 -25.453125 6.410156 -24.484375 7.796875 -22.640625 C 9.703125 -20.109375 10.03125 -17.601562 8.78125 -15.125 L 16.3125 -12.28125 Z M -0.140625 -12.3125 L 3.046875 -14.703125 C 3.953125 -15.390625 4.484375 -16.148438 4.640625 -16.984375 C 4.804688 -17.816406 4.5625 -18.664062 3.90625 -19.53125 C 3.269531 -20.375 2.535156 -20.828125 1.703125 -20.890625 C 0.878906 -20.953125 0.015625 -20.640625 -0.890625 -19.953125 L -4.078125 -17.5625 Z M -0.140625 -12.3125 "/></g></g><g style="fill:#ffffff;fill-opacity:1;"><g transform="translate(591.096458, 612.080109)"><path style="stroke:none" d="M 5.34375 -4.96875 L 1.515625 -1.40625 L -12.5 -16.515625 L -8.671875 -20.078125 Z M 5.34375 -4.96875 "/></g></g><g style="fill:#ffffff;fill-opacity:1;"><g transform="translate(610.412843, 593.322483)"><path style="stroke:none" d="M -0.484375 -25.546875 L 2.046875 -8.625 L 9.453125 -17.015625 L 12.578125 -14.265625 L 0.546875 -0.625 L -1.96875 -2.84375 L -4.5 -19.765625 L -11.546875 -11.78125 L -14.65625 -14.53125 L -3 -27.765625 Z M -0.484375 -25.546875 "/></g></g><g style="fill:#ffffff;fill-opacity:1;"><g transform="translate(634.598791, 564.399736)"><path style="stroke:none" d="M -10.5 -21.484375 C -8.695312 -24.128906 -6.375 -25.765625 -3.53125 -26.390625 C -0.695312 -27.015625 1.953125 -26.488281 4.421875 -24.8125 C 6.898438 -23.113281 8.375 -20.816406 8.84375 -17.921875 C 9.3125 -15.035156 8.648438 -12.273438 6.859375 -9.640625 C 5.066406 -7.015625 2.742188 -5.390625 -0.109375 -4.765625 C -2.960938 -4.148438 -5.640625 -4.695312 -8.140625 -6.40625 C -10.628906 -8.09375 -12.09375 -10.367188 -12.53125 -13.234375 C -12.96875 -16.109375 -12.289062 -18.859375 -10.5 -21.484375 Z M -6.828125 -19.0625 C -7.734375 -17.726562 -8.023438 -16.257812 -7.703125 -14.65625 C -7.378906 -13.0625 -6.503906 -11.773438 -5.078125 -10.796875 C -3.660156 -9.828125 -2.140625 -9.484375 -0.515625 -9.765625 C 1.109375 -10.054688 2.367188 -10.859375 3.265625 -12.171875 C 4.160156 -13.484375 4.429688 -14.929688 4.078125 -16.515625 C 3.722656 -18.097656 2.832031 -19.375 1.40625 -20.34375 C -0.0078125 -21.320312 -1.507812 -21.679688 -3.09375 -21.421875 C -4.6875 -21.160156 -5.929688 -20.375 -6.828125 -19.0625 Z M -6.828125 -19.0625 "/></g></g><g style="fill:#ffffff;fill-opacity:1;"><g transform="translate(656.960376, 529.435057)"><path style="stroke:none" d="M -13.9375 -18.4375 C -12.53125 -21.164062 -10.609375 -23.21875 -8.171875 -24.59375 L -5.453125 -20.953125 C -6.492188 -20.285156 -7.476562 -19.492188 -8.40625 -18.578125 C -9.34375 -17.671875 -10.003906 -16.84375 -10.390625 -16.09375 C -11.085938 -14.75 -10.984375 -13.84375 -10.078125 -13.375 C -9.503906 -13.082031 -8.875 -13.175781 -8.1875 -13.65625 C -7.5 -14.144531 -6.78125 -14.796875 -6.03125 -15.609375 C -5.289062 -16.429688 -4.492188 -17.222656 -3.640625 -17.984375 C -2.796875 -18.753906 -1.800781 -19.265625 -0.65625 -19.515625 C 0.476562 -19.765625 1.660156 -19.578125 2.890625 -18.953125 C 4.648438 -18.046875 5.664062 -16.648438 5.9375 -14.765625 C 6.21875 -12.878906 5.804688 -10.867188 4.703125 -8.734375 C 3.921875 -7.222656 2.882812 -5.859375 1.59375 -4.640625 C 0.300781 -3.429688 -1.078125 -2.507812 -2.546875 -1.875 L -5.203125 -5.53125 C -3.921875 -6.039062 -2.695312 -6.789062 -1.53125 -7.78125 C -0.375 -8.769531 0.457031 -9.753906 0.96875 -10.734375 C 1.351562 -11.484375 1.519531 -12.132812 1.46875 -12.6875 C 1.414062 -13.25 1.128906 -13.664062 0.609375 -13.9375 C 0.0976562 -14.195312 -0.445312 -14.175781 -1.03125 -13.875 C -1.625 -13.570312 -2.1875 -13.101562 -2.71875 -12.46875 C -3.257812 -11.832031 -3.882812 -11.171875 -4.59375 -10.484375 C -5.300781 -9.796875 -6.003906 -9.179688 -6.703125 -8.640625 C -7.398438 -8.097656 -8.234375 -7.769531 -9.203125 -7.65625 C -10.179688 -7.539062 -11.175781 -7.742188 -12.1875 -8.265625 C -13.863281 -9.128906 -14.859375 -10.488281 -15.171875 -12.34375 C -15.484375 -14.195312 -15.070312 -16.226562 -13.9375 -18.4375 Z M -13.9375 -18.4375 "/></g></g><g style="fill:#ffffff;fill-opacity:1;"><g transform="translate(20.121095, 414.967471)"><path style="stroke:none" d="M 151.484375 -56.0625 C 156.109375 -54.769531 160.046875 -53.289062 163.296875 -51.625 C 166.554688 -49.957031 169.300781 -48.222656 171.53125 -46.421875 C 173.769531 -44.617188 175.53125 -42.773438 176.8125 -40.890625 C 178.101562 -39.015625 179.097656 -37.210938 179.796875 -35.484375 C 180.503906 -33.765625 180.953125 -32.164062 181.140625 -30.6875 C 181.328125 -29.207031 181.421875 -27.957031 181.421875 -26.9375 C 181.421875 -23.175781 180.707031 -19.816406 179.28125 -16.859375 C 177.851562 -13.898438 175.925781 -11.289062 173.5 -9.03125 C 171.082031 -6.769531 168.273438 -4.859375 165.078125 -3.296875 C 161.878906 -1.742188 158.53125 -0.472656 155.03125 0.515625 C 151.539062 1.515625 147.96875 2.242188 144.3125 2.703125 C 140.65625 3.160156 137.1875 3.390625 133.90625 3.390625 C 128.582031 3.390625 123.082031 2.847656 117.40625 1.765625 C 111.738281 0.691406 106 -1.050781 100.1875 -3.46875 C 98.894531 -4.007812 98.25 -4.953125 98.25 -6.296875 C 98.25 -7.203125 98.570312 -7.9375 99.21875 -8.5 C 99.863281 -9.070312 100.5625 -9.359375 101.3125 -9.359375 C 101.6875 -9.359375 102.09375 -9.273438 102.53125 -9.109375 C 107.53125 -7.015625 112.664062 -5.429688 117.9375 -4.359375 C 123.207031 -3.285156 128.503906 -2.75 133.828125 -2.75 C 141.085938 -2.75 147.320312 -3.445312 152.53125 -4.84375 C 157.75 -6.238281 162.039062 -8.078125 165.40625 -10.359375 C 168.769531 -12.648438 171.253906 -15.234375 172.859375 -18.109375 C 174.472656 -20.984375 175.28125 -23.898438 175.28125 -26.859375 C 175.28125 -30.140625 174.378906 -33.175781 172.578125 -35.96875 C 170.773438 -38.769531 168.21875 -41.269531 164.90625 -43.46875 C 161.601562 -45.675781 157.640625 -47.5625 153.015625 -49.125 C 148.390625 -50.6875 143.253906 -51.84375 137.609375 -52.59375 C 133.898438 -51.945312 130.296875 -51.488281 126.796875 -51.21875 C 123.304688 -50.945312 120.082031 -50.8125 117.125 -50.8125 L 115.265625 -50.8125 C 114.890625 -50.8125 114.539062 -50.84375 114.21875 -50.90625 C 110.351562 -41.59375 105.742188 -33.546875 100.390625 -26.765625 C 95.035156 -19.992188 89.332031 -14.390625 83.28125 -9.953125 C 77.238281 -5.523438 71.03125 -2.25 64.65625 -0.125 C 58.28125 2 52.160156 3.0625 46.296875 3.0625 C 40.222656 3.0625 34.644531 2.210938 29.5625 0.515625 C 24.476562 -1.171875 20.109375 -3.570312 16.453125 -6.6875 C 12.796875 -9.8125 9.945312 -13.59375 7.90625 -18.03125 C 5.863281 -22.46875 4.84375 -27.425781 4.84375 -32.90625 C 4.84375 -38.613281 5.957031 -44.515625 8.1875 -50.609375 C 10.414062 -56.710938 13.738281 -62.914062 18.15625 -69.21875 C 22.34375 -75.125 26.988281 -80.429688 32.09375 -85.140625 C 37.207031 -89.847656 42.570312 -93.972656 48.1875 -97.515625 C 53.8125 -101.066406 59.609375 -104.109375 65.578125 -106.640625 C 71.546875 -109.171875 77.472656 -111.238281 83.359375 -112.84375 C 89.253906 -114.457031 95.007812 -115.628906 100.625 -116.359375 C 106.25 -117.085938 111.535156 -117.453125 116.484375 -117.453125 C 120.515625 -117.453125 124.359375 -117.316406 128.015625 -117.046875 C 131.671875 -116.773438 135.164062 -116.367188 138.5 -115.828125 C 140.4375 -117.984375 141.992188 -119.53125 143.171875 -120.46875 C 144.359375 -121.414062 145.035156 -121.941406 145.203125 -122.046875 C 145.847656 -122.367188 146.410156 -122.53125 146.890625 -122.53125 C 147.640625 -122.53125 148.3125 -122.3125 148.90625 -121.875 C 149.5 -121.445312 149.796875 -120.832031 149.796875 -120.03125 C 149.796875 -118.957031 149.414062 -118.054688 148.65625 -117.328125 C 147.90625 -116.597656 146.882812 -115.617188 145.59375 -114.390625 C 155.4375 -111.960938 162.96875 -108.316406 168.1875 -103.453125 C 173.40625 -98.585938 176.015625 -92.578125 176.015625 -85.421875 C 176.015625 -81.492188 175.367188 -77.96875 174.078125 -74.84375 C 172.785156 -71.726562 171.019531 -68.988281 168.78125 -66.625 C 166.550781 -64.257812 163.941406 -62.203125 160.953125 -60.453125 C 157.972656 -58.710938 154.816406 -57.25 151.484375 -56.0625 Z M 137.703125 -58.71875 C 140.066406 -59.15625 142.5 -59.722656 145 -60.421875 C 147.5 -61.117188 149.941406 -61.960938 152.328125 -62.953125 C 154.722656 -63.953125 156.992188 -65.132812 159.140625 -66.5 C 161.296875 -67.875 163.164062 -69.488281 164.75 -71.34375 C 166.34375 -73.195312 167.609375 -75.28125 168.546875 -77.59375 C 169.492188 -79.90625 169.96875 -82.539062 169.96875 -85.5 C 169.96875 -91.53125 167.460938 -96.503906 162.453125 -100.421875 C 157.453125 -104.347656 150.273438 -107.253906 140.921875 -109.140625 C 138.234375 -105.804688 135.707031 -102.125 133.34375 -98.09375 C 130.976562 -94.0625 128.800781 -89.878906 126.8125 -85.546875 C 124.820312 -81.210938 123.03125 -76.828125 121.4375 -72.390625 C 119.851562 -67.960938 118.550781 -63.675781 117.53125 -59.53125 C 118.601562 -59.582031 119.597656 -59.609375 120.515625 -59.609375 C 121.429688 -59.609375 122.210938 -59.609375 122.859375 -59.609375 C 124.953125 -59.609375 127.234375 -59.539062 129.703125 -59.40625 C 132.179688 -59.269531 134.847656 -59.039062 137.703125 -58.71875 Z M 134.0625 -110.265625 C 131.320312 -110.640625 128.5 -110.90625 125.59375 -111.0625 C 122.6875 -111.226562 119.648438 -111.3125 116.484375 -111.3125 C 111.742188 -111.3125 106.710938 -110.960938 101.390625 -110.265625 C 96.066406 -109.566406 90.609375 -108.460938 85.015625 -106.953125 C 79.421875 -105.453125 73.785156 -103.503906 68.109375 -101.109375 C 62.441406 -98.722656 56.929688 -95.847656 51.578125 -92.484375 C 46.234375 -89.117188 41.140625 -85.203125 36.296875 -80.734375 C 31.460938 -76.273438 27.054688 -71.25 23.078125 -65.65625 C 19.035156 -59.957031 15.992188 -54.335938 13.953125 -48.796875 C 11.910156 -43.265625 10.890625 -38 10.890625 -33 C 10.890625 -28.3125 11.734375 -24.113281 13.421875 -20.40625 C 15.117188 -16.695312 17.523438 -13.5625 20.640625 -11 C 23.765625 -8.445312 27.503906 -6.484375 31.859375 -5.109375 C 36.210938 -3.742188 41.023438 -3.0625 46.296875 -3.0625 C 51.566406 -3.0625 57.050781 -4.015625 62.75 -5.921875 C 68.457031 -7.835938 74.023438 -10.769531 79.453125 -14.71875 C 84.890625 -18.675781 90.050781 -23.675781 94.9375 -29.71875 C 99.832031 -35.769531 104.109375 -42.960938 107.765625 -51.296875 C 106.796875 -51.296875 105.800781 -51.578125 104.78125 -52.140625 C 103.757812 -52.710938 103.25 -53.617188 103.25 -54.859375 C 103.25 -56.140625 103.867188 -57.0625 105.109375 -57.625 C 106.347656 -58.195312 108.285156 -58.671875 110.921875 -59.046875 C 112.367188 -63.453125 113.84375 -67.859375 115.34375 -72.265625 C 116.851562 -76.679688 118.519531 -81.039062 120.34375 -85.34375 C 122.175781 -89.644531 124.191406 -93.878906 126.390625 -98.046875 C 128.597656 -102.210938 131.15625 -106.285156 134.0625 -110.265625 Z M 134.0625 -110.265625 "/></g></g><g style="fill:#ffffff;fill-opacity:1;"><g transform="translate(211.040708, 408.249244)"><path style="stroke:none" d="M 86.609375 -26.53125 C 87.097656 -25.976562 87.304688 -25.320312 87.234375 -24.5625 C 87.160156 -23.8125 86.816406 -23.195312 86.203125 -22.71875 C 85.921875 -22.507812 84.679688 -21.59375 82.484375 -19.96875 C 80.285156 -18.351562 77.328125 -16.425781 73.609375 -14.1875 C 69.890625 -11.957031 65.585938 -9.738281 60.703125 -7.53125 C 55.816406 -5.332031 50.582031 -3.507812 45 -2.0625 C 39.425781 -0.613281 33.679688 0.109375 27.765625 0.109375 C 20.742188 0.171875 14 -1.101562 7.53125 -3.71875 C 3.957031 -5.164062 1.445312 -6.851562 0 -8.78125 C -1.445312 -10.707031 -2.269531 -12.597656 -2.46875 -14.453125 C -2.675781 -16.304688 -2.644531 -17.890625 -2.375 -19.203125 C -1.75 -21.742188 -0.546875 -24.203125 1.234375 -26.578125 C 3.023438 -28.953125 5.125 -31.085938 7.53125 -32.984375 C 9.945312 -34.878906 12.410156 -36.34375 14.921875 -37.375 C 17.429688 -38.40625 19.71875 -38.851562 21.78125 -38.71875 C 23.632812 -38.71875 25.234375 -38.0625 26.578125 -36.75 C 27.921875 -35.445312 28.660156 -33.832031 28.796875 -31.90625 C 28.867188 -30.800781 28.59375 -29.4375 27.96875 -27.8125 C 27.351562 -26.195312 25.773438 -24.566406 23.234375 -22.921875 C 17.378906 -19.273438 10.976562 -17.65625 4.03125 -18.0625 C 3.6875 -18.132812 3.375 -18.066406 3.09375 -17.859375 C 2.820312 -17.648438 2.71875 -17.375 2.78125 -17.03125 C 2.71875 -16.414062 2.785156 -15.625 2.984375 -14.65625 C 3.191406 -13.695312 3.773438 -12.695312 4.734375 -11.65625 C 5.703125 -10.625 7.320312 -9.664062 9.59375 -8.78125 C 14.28125 -6.78125 19.082031 -5.640625 24 -5.359375 C 28.925781 -5.085938 33.757812 -5.398438 38.5 -6.296875 C 43.25 -7.191406 47.804688 -8.445312 52.171875 -10.0625 C 56.546875 -11.675781 60.570312 -13.445312 64.25 -15.375 C 67.9375 -17.300781 71.15625 -19.125 73.90625 -20.84375 C 76.664062 -22.570312 78.835938 -24.019531 80.421875 -25.1875 C 82.003906 -26.351562 82.796875 -26.9375 82.796875 -26.9375 C 83.410156 -27.425781 84.097656 -27.632812 84.859375 -27.5625 C 85.546875 -27.488281 86.128906 -27.144531 86.609375 -26.53125 Z M 6.40625 -24.359375 C 5.644531 -23.328125 5.726562 -22.757812 6.65625 -22.65625 C 7.582031 -22.550781 8.90625 -22.753906 10.625 -23.265625 C 12.351562 -23.785156 14.128906 -24.441406 15.953125 -25.234375 C 17.773438 -26.023438 19.238281 -26.765625 20.34375 -27.453125 C 22.46875 -28.898438 23.460938 -30.210938 23.328125 -31.390625 C 23.265625 -32.140625 23.078125 -32.632812 22.765625 -32.875 C 22.453125 -33.113281 22.019531 -33.269531 21.46875 -33.34375 C 19.269531 -33.476562 16.722656 -32.703125 13.828125 -31.015625 C 10.941406 -29.335938 8.46875 -27.117188 6.40625 -24.359375 Z M 6.40625 -24.359375 "/></g></g><g style="fill:#ffffff;fill-opacity:1;"><g transform="translate(297.03313, 408.249244)"><path style="stroke:none" d="M 84.96875 -19.921875 C 84.96875 -19.859375 84.378906 -19.101562 83.203125 -17.65625 C 82.035156 -16.207031 80.367188 -14.414062 78.203125 -12.28125 C 76.035156 -10.144531 73.398438 -8.023438 70.296875 -5.921875 C 67.203125 -3.828125 63.675781 -2.078125 59.71875 -0.671875 C 55.757812 0.734375 51.476562 1.4375 46.875 1.4375 C 41.78125 1.4375 36.890625 0.546875 32.203125 -1.234375 C 20.441406 -5.578125 12.164062 -12.253906 7.375 -21.265625 C 2.59375 -30.285156 1.613281 -41.019531 4.4375 -53.46875 C 5.75 -59.113281 7.765625 -64.8125 10.484375 -70.5625 C 13.203125 -76.3125 16.4375 -81.832031 20.1875 -87.125 C 23.9375 -92.425781 27.976562 -97.332031 32.3125 -101.84375 C 36.644531 -106.351562 41.082031 -110.257812 45.625 -113.5625 C 50.164062 -116.863281 54.640625 -119.359375 59.046875 -121.046875 C 63.453125 -122.734375 67.546875 -123.40625 71.328125 -123.0625 C 77.734375 -122.914062 83.035156 -120.398438 87.234375 -115.515625 C 88.054688 -114.421875 89.140625 -113.628906 90.484375 -113.140625 C 91.828125 -112.660156 93.1875 -112.554688 94.5625 -112.828125 C 98.6875 -113.867188 102.882812 -114.421875 107.15625 -114.484375 C 107.914062 -114.484375 108.566406 -114.222656 109.109375 -113.703125 C 109.660156 -113.191406 109.9375 -112.554688 109.9375 -111.796875 C 109.9375 -111.046875 109.660156 -110.410156 109.109375 -109.890625 C 108.566406 -109.378906 107.953125 -109.125 107.265625 -109.125 C 102.234375 -109.050781 97.34375 -108.257812 92.59375 -106.75 C 91.21875 -106.257812 90.566406 -105.296875 90.640625 -103.859375 C 90.429688 -100.410156 89.601562 -96.84375 88.15625 -93.15625 C 86.71875 -89.476562 84.878906 -85.921875 82.640625 -82.484375 C 80.398438 -79.046875 77.90625 -75.945312 75.15625 -73.1875 C 72.40625 -70.4375 69.566406 -68.21875 66.640625 -66.53125 C 63.710938 -64.84375 60.875 -63.96875 58.125 -63.90625 C 54.957031 -63.5625 52.476562 -64.726562 50.6875 -67.40625 C 48.625 -70.78125 49.347656 -75.597656 52.859375 -81.859375 C 59.535156 -92.804688 68.550781 -101.238281 79.90625 -107.15625 C 81.28125 -107.914062 82.070312 -109.085938 82.28125 -110.671875 C 82.414062 -112.316406 81.863281 -113.625 80.625 -114.59375 C 77.59375 -116.519531 74.320312 -117.550781 70.8125 -117.6875 C 67.71875 -117.957031 64.242188 -117.335938 60.390625 -115.828125 C 56.535156 -114.316406 52.539062 -112.046875 48.40625 -109.015625 C 44.28125 -105.984375 40.203125 -102.382812 36.171875 -98.21875 C 32.148438 -94.0625 28.367188 -89.503906 24.828125 -84.546875 C 21.285156 -79.585938 18.207031 -74.375 15.59375 -68.90625 C 12.976562 -63.4375 11.015625 -57.878906 9.703125 -52.234375 C 8.878906 -48.378906 8.445312 -44.285156 8.40625 -39.953125 C 8.375 -35.617188 9.113281 -31.351562 10.625 -27.15625 C 12.144531 -22.957031 14.78125 -19.050781 18.53125 -15.4375 C 22.28125 -11.820312 27.457031 -8.8125 34.0625 -6.40625 C 38.675781 -4.675781 43.015625 -3.847656 47.078125 -3.921875 C 51.140625 -3.992188 54.875 -4.628906 58.28125 -5.828125 C 61.6875 -7.035156 64.726562 -8.550781 67.40625 -10.375 C 70.09375 -12.195312 72.378906 -14.035156 74.265625 -15.890625 C 76.160156 -17.753906 77.640625 -19.335938 78.703125 -20.640625 C 79.773438 -21.953125 80.378906 -22.710938 80.515625 -22.921875 C 80.929688 -23.535156 81.5 -23.910156 82.21875 -24.046875 C 82.945312 -24.191406 83.617188 -24.054688 84.234375 -23.640625 C 84.859375 -23.222656 85.238281 -22.65625 85.375 -21.9375 C 85.507812 -21.21875 85.375 -20.546875 84.96875 -19.921875 Z M 58.015625 -69.375 C 60.148438 -69.445312 62.503906 -70.304688 65.078125 -71.953125 C 67.660156 -73.609375 70.222656 -75.796875 72.765625 -78.515625 C 75.316406 -81.234375 77.609375 -84.257812 79.640625 -87.59375 C 81.671875 -90.925781 83.171875 -94.28125 84.140625 -97.65625 C 84.484375 -98.96875 84.140625 -100 83.109375 -100.75 C 82.078125 -101.582031 80.972656 -101.65625 79.796875 -100.96875 C 70.578125 -95.59375 63.179688 -88.363281 57.609375 -79.28125 C 56.296875 -76.945312 55.5 -75.003906 55.21875 -73.453125 C 54.945312 -71.898438 54.984375 -70.816406 55.328125 -70.203125 C 55.535156 -69.859375 55.914062 -69.632812 56.46875 -69.53125 C 57.019531 -69.425781 57.535156 -69.375 58.015625 -69.375 Z M 58.015625 -69.375 "/></g></g><g style="fill:#ffffff;fill-opacity:1;"><g transform="translate(391.800235, 408.249244)"><path style="stroke:none" d="M 89.609375 -29.015625 C 90.160156 -28.523438 90.4375 -27.90625 90.4375 -27.15625 C 90.4375 -26.394531 90.191406 -25.738281 89.703125 -25.1875 C 87.085938 -22.5 83.867188 -19.660156 80.046875 -16.671875 C 76.234375 -13.679688 72.070312 -10.859375 67.5625 -8.203125 C 63.0625 -5.554688 58.453125 -3.421875 53.734375 -1.796875 C 49.015625 -0.179688 44.523438 0.625 40.265625 0.625 L 40.0625 0.625 C 34.070312 0.820312 29.046875 -1.242188 24.984375 -5.578125 C 23.265625 -7.503906 22.234375 -9.738281 21.890625 -12.28125 C 21.742188 -13.25 21.191406 -13.867188 20.234375 -14.140625 C 19.335938 -14.421875 18.546875 -14.21875 17.859375 -13.53125 C 15.796875 -11.320312 13.628906 -9.375 11.359375 -7.6875 C 9.085938 -6 6.847656 -4.84375 4.640625 -4.21875 C 2.441406 -3.601562 0.414062 -3.847656 -1.4375 -4.953125 C -3.226562 -5.984375 -4.207031 -7.566406 -4.375 -9.703125 C -4.550781 -11.835938 -4.257812 -14.175781 -3.5 -16.71875 C -2.75 -19.269531 -1.804688 -21.734375 -0.671875 -24.109375 C 0.460938 -26.484375 1.441406 -28.425781 2.265625 -29.9375 C 2.679688 -30.550781 3.234375 -30.945312 3.921875 -31.125 C 4.609375 -31.300781 5.265625 -31.210938 5.890625 -30.859375 C 6.503906 -30.515625 6.914062 -30 7.125 -29.3125 C 7.332031 -28.625 7.296875 -27.9375 7.015625 -27.25 C 5.296875 -24.289062 3.9375 -21.519531 2.9375 -18.9375 C 1.9375 -16.363281 1.300781 -14.234375 1.03125 -12.546875 C 0.757812 -10.859375 0.863281 -9.875 1.34375 -9.59375 C 2.238281 -9.050781 3.5625 -9.257812 5.3125 -10.21875 C 7.070312 -11.1875 9.050781 -12.679688 11.25 -14.703125 C 13.457031 -16.734375 15.695312 -19.109375 17.96875 -21.828125 C 20.238281 -24.546875 22.335938 -27.316406 24.265625 -30.140625 C 24.671875 -30.765625 25.203125 -31.144531 25.859375 -31.28125 C 26.515625 -31.414062 27.148438 -31.347656 27.765625 -31.078125 C 28.390625 -30.734375 28.820312 -30.25 29.0625 -29.625 C 29.300781 -29.007812 29.316406 -28.390625 29.109375 -27.765625 C 28.765625 -26.867188 28.398438 -25.613281 28.015625 -24 C 27.640625 -22.382812 27.347656 -20.628906 27.140625 -18.734375 C 26.941406 -16.835938 26.960938 -15.03125 27.203125 -13.3125 C 27.441406 -11.59375 28.007812 -10.21875 28.90625 -9.1875 C 32 -6.09375 35.71875 -4.613281 40.0625 -4.75 L 40.265625 -4.75 C 44.117188 -4.75 48.195312 -5.539062 52.5 -7.125 C 56.800781 -8.707031 61.050781 -10.738281 65.25 -13.21875 C 69.445312 -15.695312 73.332031 -18.328125 76.90625 -21.109375 C 80.488281 -23.898438 83.414062 -26.5 85.6875 -28.90625 C 86.238281 -29.457031 86.890625 -29.765625 87.640625 -29.828125 C 88.398438 -29.828125 89.054688 -29.554688 89.609375 -29.015625 Z M 89.609375 -29.015625 "/></g></g><g style="fill:#ffffff;fill-opacity:1;"><g transform="translate(480.47668, 408.249244)"><path style="stroke:none" d="M 89.09375 -27.15625 C 89.570312 -26.601562 89.8125 -25.984375 89.8125 -25.296875 C 89.8125 -24.535156 89.535156 -23.878906 88.984375 -23.328125 C 85.410156 -19.816406 81.421875 -16.804688 77.015625 -14.296875 C 72.609375 -11.785156 68.046875 -9.703125 63.328125 -8.046875 C 58.617188 -6.398438 54.046875 -5.179688 49.609375 -4.390625 C 45.171875 -3.597656 41.125 -3.203125 37.46875 -3.203125 C 33.550781 -2.992188 29.769531 -3.71875 26.125 -5.375 C 23.644531 -6.8125 21.972656 -8.390625 21.109375 -10.109375 C 20.253906 -11.835938 19.894531 -13.613281 20.03125 -15.4375 C 20.164062 -17.257812 20.5625 -18.976562 21.21875 -20.59375 C 21.875 -22.207031 22.507812 -23.601562 23.125 -24.78125 C 23.257812 -25.050781 23.1875 -25.253906 22.90625 -25.390625 C 22.632812 -25.535156 22.15625 -25.429688 21.46875 -25.078125 C 17.6875 -23.015625 13.628906 -22.085938 9.296875 -22.296875 C 7.367188 -22.234375 5.472656 -22.613281 3.609375 -23.4375 C 2.921875 -23.226562 2.234375 -23.296875 1.546875 -23.640625 C 0.441406 -24.191406 -0.0351562 -25.085938 0.109375 -26.328125 C -0.921875 -27.566406 -1.644531 -28.976562 -2.0625 -30.5625 C -2.882812 -33.382812 -2.8125 -36.171875 -1.84375 -38.921875 C -0.882812 -41.671875 0.796875 -43.941406 3.203125 -45.734375 C 6.085938 -47.453125 8.359375 -47.519531 10.015625 -45.9375 C 10.222656 -45.726562 10.476562 -45.363281 10.78125 -44.84375 C 11.09375 -44.332031 11.28125 -43.523438 11.34375 -42.421875 C 11.414062 -41.328125 11.191406 -39.78125 10.671875 -37.78125 C 10.160156 -35.789062 9.1875 -33.175781 7.75 -29.9375 C 7.601562 -29.664062 7.703125 -29.21875 8.046875 -28.59375 C 8.390625 -27.976562 8.804688 -27.671875 9.296875 -27.671875 C 13.285156 -27.671875 17.035156 -28.664062 20.546875 -30.65625 C 21.710938 -31.28125 22.945312 -31.796875 24.25 -32.203125 C 25.5625 -32.617188 26.941406 -32.273438 28.390625 -31.171875 C 29.835938 -30.078125 30.316406 -28.71875 29.828125 -27.09375 C 29.347656 -25.476562 28.726562 -23.914062 27.96875 -22.40625 C 26.394531 -19.164062 25.570312 -16.632812 25.5 -14.8125 C 25.425781 -12.988281 26.5625 -11.390625 28.90625 -10.015625 C 30.207031 -9.253906 32.425781 -8.785156 35.5625 -8.609375 C 38.695312 -8.441406 42.34375 -8.6875 46.5 -9.34375 C 50.664062 -10 55.054688 -11.066406 59.671875 -12.546875 C 64.285156 -14.023438 68.789062 -15.96875 73.1875 -18.375 C 77.59375 -20.78125 81.585938 -23.738281 85.171875 -27.25 C 85.722656 -27.726562 86.375 -27.96875 87.125 -27.96875 C 87.882812 -27.96875 88.539062 -27.695312 89.09375 -27.15625 Z M 3 -32.828125 C 4.238281 -35.441406 5.203125 -38.160156 5.890625 -40.984375 C 3.335938 -38.785156 2.375 -36.066406 3 -32.828125 Z M 3 -32.828125 "/></g></g><g style="fill:#ffffff;fill-opacity:1;"><g transform="translate(568.430512, 408.249244)"><path style="stroke:none" d="M 71.03125 -26.53125 C 71.570312 -25.976562 71.84375 -25.320312 71.84375 -24.5625 C 71.84375 -23.8125 71.570312 -23.160156 71.03125 -22.609375 C 70.820312 -22.398438 69.804688 -21.46875 67.984375 -19.8125 C 66.160156 -18.164062 63.765625 -16.207031 60.796875 -13.9375 C 57.835938 -11.664062 54.46875 -9.394531 50.6875 -7.125 C 46.90625 -4.851562 42.929688 -2.957031 38.765625 -1.4375 C 34.597656 0.0703125 30.414062 0.828125 26.21875 0.828125 C 23.675781 0.828125 21.195312 0.484375 18.78125 -0.203125 C 14.3125 -1.515625 10.578125 -4.21875 7.578125 -8.3125 C 4.585938 -12.40625 2.40625 -17.6875 1.03125 -24.15625 C 0.894531 -24.5 0.828125 -24.84375 0.828125 -25.1875 C 0.203125 -28.5625 -0.207031 -31.96875 -0.40625 -35.40625 C -0.613281 -39.882812 -0.53125 -44.566406 -0.15625 -49.453125 C 0.21875 -54.335938 0.851562 -59.132812 1.75 -63.84375 C 2.644531 -68.5625 3.796875 -72.929688 5.203125 -76.953125 C 6.617188 -80.984375 8.203125 -84.375 9.953125 -87.125 C 11.710938 -89.882812 13.660156 -91.742188 15.796875 -92.703125 C 17.242188 -93.328125 18.757812 -93.429688 20.34375 -93.015625 C 21.925781 -92.597656 23.195312 -91.769531 24.15625 -90.53125 C 25.664062 -88.945312 26.472656 -86.660156 26.578125 -83.671875 C 26.679688 -80.679688 26.320312 -77.257812 25.5 -73.40625 C 24.675781 -69.550781 23.539062 -65.488281 22.09375 -61.21875 C 20.644531 -56.945312 19.0625 -52.742188 17.34375 -48.609375 C 15.625 -44.484375 13.9375 -40.628906 12.28125 -37.046875 C 10.632812 -33.472656 9.222656 -30.484375 8.046875 -28.078125 C 6.953125 -25.804688 6.75 -23.5 7.4375 -21.15625 C 8.46875 -17.582031 10 -14.332031 12.03125 -11.40625 C 14.0625 -8.476562 16.832031 -6.46875 20.34375 -5.375 C 23.570312 -4.40625 26.957031 -4.226562 30.5 -4.84375 C 34.050781 -5.46875 37.5625 -6.585938 41.03125 -8.203125 C 44.507812 -9.828125 47.8125 -11.648438 50.9375 -13.671875 C 54.070312 -15.703125 56.84375 -17.679688 59.25 -19.609375 C 61.664062 -21.535156 63.578125 -23.148438 64.984375 -24.453125 C 66.398438 -25.765625 67.140625 -26.457031 67.203125 -26.53125 C 67.753906 -27.007812 68.410156 -27.25 69.171875 -27.25 C 69.859375 -27.25 70.476562 -27.007812 71.03125 -26.53125 Z M 5.375 -36.953125 C 5.4375 -36.472656 5.671875 -36.144531 6.078125 -35.96875 C 6.492188 -35.800781 6.84375 -35.925781 7.125 -36.34375 C 8.019531 -37.78125 9.050781 -39.910156 10.21875 -42.734375 C 11.382812 -45.554688 12.585938 -48.753906 13.828125 -52.328125 C 15.066406 -55.910156 16.203125 -59.5625 17.234375 -63.28125 C 18.265625 -67 19.125 -70.507812 19.8125 -73.8125 C 20.507812 -77.113281 20.925781 -79.929688 21.0625 -82.265625 C 21.195312 -84.609375 20.921875 -86.125 20.234375 -86.8125 C 19.617188 -87.507812 19.035156 -87.859375 18.484375 -87.859375 C 18.273438 -87.859375 18.066406 -87.820312 17.859375 -87.75 C 16.828125 -87.269531 15.640625 -85.789062 14.296875 -83.3125 C 12.953125 -80.832031 11.625 -77.695312 10.3125 -73.90625 C 9.007812 -70.125 7.859375 -66.03125 6.859375 -61.625 C 5.867188 -57.226562 5.195312 -52.878906 4.84375 -48.578125 C 4.5 -44.273438 4.675781 -40.398438 5.375 -36.953125 Z M 5.375 -36.953125 "/></g></g><g style="fill:#ffffff;fill-opacity:1;"><g transform="translate(639.764081, 408.249244)"><path style="stroke:none" d="M 81.65625 -28.5 C 82.207031 -27.945312 82.484375 -27.289062 82.484375 -26.53125 C 82.484375 -25.769531 82.242188 -25.148438 81.765625 -24.671875 C 78.734375 -21.785156 75.289062 -19.648438 71.4375 -18.265625 C 67.582031 -16.890625 63.609375 -16.335938 59.515625 -16.609375 C 55.421875 -16.890625 51.515625 -17.992188 47.796875 -19.921875 C 46.628906 -20.546875 45.40625 -20.753906 44.125 -20.546875 C 42.851562 -20.335938 41.738281 -19.785156 40.78125 -18.890625 C 37.539062 -15.585938 34.304688 -11.90625 31.078125 -7.84375 C 30.734375 -7.5 30.523438 -7.085938 30.453125 -6.609375 C 29.765625 -2.335938 28.882812 2.015625 27.8125 6.453125 C 26.75 10.890625 25.5625 15.238281 24.25 19.5 C 22.945312 23.769531 21.570312 27.691406 20.125 31.265625 C 18.6875 34.847656 17.226562 37.878906 15.75 40.359375 C 14.269531 42.835938 12.835938 44.523438 11.453125 45.421875 C 10.492188 46.109375 9.460938 46.453125 8.359375 46.453125 C 6.910156 46.453125 5.707031 45.9375 4.75 44.90625 C 2.476562 42.5 1.476562 39.644531 1.75 36.34375 C 1.820312 33.445312 2.507812 30.175781 3.8125 26.53125 C 5.125 22.882812 6.863281 19.046875 9.03125 15.015625 C 11.195312 10.992188 13.65625 6.914062 16.40625 2.78125 C 19.164062 -1.34375 22.054688 -5.296875 25.078125 -9.078125 C 25.359375 -9.492188 25.535156 -9.941406 25.609375 -10.421875 C 26.015625 -12.421875 26.253906 -14.421875 26.328125 -16.421875 C 24.671875 -13.109375 22.394531 -10.265625 19.5 -7.890625 C 16.613281 -5.515625 13.347656 -3.8125 9.703125 -2.78125 C 8.117188 -2.300781 6.519531 -2.285156 4.90625 -2.734375 C 3.289062 -3.179688 1.929688 -4.023438 0.828125 -5.265625 C -0.0664062 -6.222656 -0.769531 -7.664062 -1.28125 -9.59375 C -1.800781 -11.519531 -1.851562 -14.050781 -1.4375 -17.1875 C -1.03125 -20.320312 0.101562 -24.265625 1.96875 -29.015625 C 2.238281 -29.703125 2.734375 -30.195312 3.453125 -30.5 C 4.179688 -30.8125 4.890625 -30.832031 5.578125 -30.5625 C 6.265625 -30.28125 6.742188 -29.796875 7.015625 -29.109375 C 7.296875 -28.421875 7.296875 -27.734375 7.015625 -27.046875 C 5.222656 -22.640625 4.171875 -19.160156 3.859375 -16.609375 C 3.554688 -14.066406 3.578125 -12.210938 3.921875 -11.046875 C 4.265625 -9.878906 4.578125 -9.125 4.859375 -8.78125 C 5.890625 -7.8125 7.054688 -7.566406 8.359375 -8.046875 C 11.179688 -8.804688 13.585938 -10.03125 15.578125 -11.71875 C 17.578125 -13.40625 19.226562 -15.28125 20.53125 -17.34375 C 21.84375 -19.40625 22.878906 -21.398438 23.640625 -23.328125 C 24.398438 -25.253906 24.929688 -26.867188 25.234375 -28.171875 C 25.546875 -29.484375 25.703125 -30.140625 25.703125 -30.140625 C 25.984375 -31.515625 26.773438 -32.273438 28.078125 -32.421875 C 29.453125 -32.554688 30.414062 -31.96875 30.96875 -30.65625 C 31.65625 -28.59375 32 -26.492188 32 -24.359375 C 32.070312 -23.117188 32.691406 -22.296875 33.859375 -21.890625 C 34.960938 -21.398438 35.960938 -21.601562 36.859375 -22.5 C 38.640625 -24.363281 40.394531 -26.085938 42.125 -27.671875 C 43.21875 -28.628906 44.351562 -28.660156 45.53125 -27.765625 C 49.175781 -25.085938 52.613281 -23.367188 55.84375 -22.609375 C 59.082031 -21.847656 62.007812 -21.65625 64.625 -22.03125 C 67.238281 -22.414062 69.523438 -23.109375 71.484375 -24.109375 C 73.453125 -25.109375 74.984375 -26.050781 76.078125 -26.9375 C 77.179688 -27.832031 77.769531 -28.316406 77.84375 -28.390625 C 78.394531 -28.941406 79.046875 -29.21875 79.796875 -29.21875 C 80.554688 -29.21875 81.175781 -28.976562 81.65625 -28.5 Z M 22.71875 4.75 C 22.851562 4.332031 22.800781 4.085938 22.5625 4.015625 C 22.320312 3.953125 22.097656 4.09375 21.890625 4.4375 C 19.128906 8.5 16.648438 12.507812 14.453125 16.46875 C 12.253906 20.425781 10.515625 24.125 9.234375 27.5625 C 7.960938 31 7.289062 33.957031 7.21875 36.4375 C 7.21875 37.46875 7.304688 38.445312 7.484375 39.375 C 7.660156 40.3125 7.988281 40.847656 8.46875 40.984375 C 8.945312 41.054688 9.515625 40.59375 10.171875 39.59375 C 10.828125 38.59375 11.738281 36.890625 12.90625 34.484375 C 17.238281 24.910156 20.507812 15 22.71875 4.75 Z M 22.71875 4.75 "/></g></g></g></svg>